<svg xmlns="http://www.w3.org/2000/svg" xmlns:xlink="http://www.w3.org/1999/xlink" width="1056" zoomAndPan="magnify" viewBox="0 0 792 611.999999" height="816" preserveAspectRatio="xMidYMid meet" version="1.0"><defs><g/><clipPath id="49e5c60e40"><path d="M 148.566406 183.738281 L 643 183.738281 L 643 612 L 148.566406 612 Z M 148.566406 183.738281 " clip-rule="nonzero"/></clipPath><clipPath id="4b3eca83d3"><path d="M 189.625 237.679688 L 602.375 237.679688 L 602.375 288.625 L 189.625 288.625 Z M 189.625 237.679688 " clip-rule="nonzero"/></clipPath><clipPath id="db0ab5a3dc"><path d="M 0 342.5625 L 792 342.5625 L 792 374.976562 L 0 374.976562 Z M 0 342.5625 " clip-rule="nonzero"/></clipPath><clipPath id="333f56adf1"><path d="M 0 365.023438 L 148.566406 365.023438 L 148.566406 612 L 0 612 Z M 0 365.023438 " clip-rule="nonzero"/></clipPath><clipPath id="460a48e29f"><path d="M 643.433594 358.769531 L 792 358.769531 L 792 612 L 643.433594 612 Z M 643.433594 358.769531 " clip-rule="nonzero"/></clipPath></defs><rect x="-79.2" width="950.4" fill="#ffffff" y="-61.2" height="734.399999" fill-opacity="1"/><rect x="-79.2" width="950.4" fill="#3b5704" y="-61.2" height="734.399999" fill-opacity="1"/><g fill="#edffcc" fill-opacity="1"><g transform="translate(148.569271, 137.403902)"><g><path d="M 24.578125 0.515625 C 24.179688 0.515625 23.523438 0.484375 22.609375 0.421875 C 21.703125 0.367188 20.765625 0.3125 19.796875 0.25 C 18.828125 0.195312 17.890625 0.140625 16.984375 0.078125 C 16.078125 0.0234375 15.421875 0 15.015625 0 L 13.40625 0 C 13 0 12.34375 0.0234375 11.4375 0.078125 C 10.53125 0.140625 9.59375 0.195312 8.625 0.25 C 7.65625 0.3125 6.710938 0.367188 5.796875 0.421875 C 4.890625 0.484375 4.238281 0.515625 3.84375 0.515625 L 3.671875 0.171875 L 3.921875 -1.359375 L 4.359375 -1.703125 C 5.035156 -1.703125 5.828125 -1.742188 6.734375 -1.828125 C 7.648438 -1.921875 8.363281 -2.132812 8.875 -2.46875 C 9.332031 -2.8125 9.757812 -3.351562 10.15625 -4.09375 C 10.550781 -4.832031 10.835938 -5.941406 11.015625 -7.421875 C 11.015625 -7.816406 11.023438 -8.285156 11.046875 -8.828125 C 11.078125 -9.367188 11.109375 -10.035156 11.140625 -10.828125 C 11.171875 -11.628906 11.1875 -12.597656 11.1875 -13.734375 C 11.1875 -14.878906 11.1875 -16.300781 11.1875 -18 L 11.1875 -40.203125 C 11.1875 -41.335938 11.171875 -42.628906 11.140625 -44.078125 C 11.109375 -45.523438 11.035156 -46.960938 10.921875 -48.390625 C 10.804688 -49.703125 10.550781 -50.738281 10.15625 -51.5 C 9.757812 -52.269531 9.332031 -52.851562 8.875 -53.25 C 8.363281 -53.539062 7.835938 -53.753906 7.296875 -53.890625 C 6.753906 -54.035156 5.773438 -54.109375 4.359375 -54.109375 L 3.921875 -54.453125 L 3.671875 -55.984375 L 3.84375 -56.328125 C 4.238281 -56.328125 4.765625 -56.296875 5.421875 -56.234375 C 6.078125 -56.179688 6.757812 -56.125 7.46875 -56.0625 C 8.175781 -56.007812 8.898438 -55.953125 9.640625 -55.890625 C 10.378906 -55.835938 11.0625 -55.8125 11.6875 -55.8125 L 14.765625 -55.8125 C 15.390625 -55.8125 16.097656 -55.8125 16.890625 -55.8125 C 17.691406 -55.8125 18.503906 -55.828125 19.328125 -55.859375 C 20.148438 -55.890625 20.898438 -55.90625 21.578125 -55.90625 C 22.265625 -55.90625 22.835938 -55.90625 23.296875 -55.90625 C 27.109375 -55.90625 30.335938 -55.535156 32.984375 -54.796875 C 35.628906 -54.054688 37.773438 -53.046875 39.421875 -51.765625 C 41.078125 -50.484375 42.285156 -48.945312 43.046875 -47.15625 C 43.816406 -45.363281 44.203125 -43.441406 44.203125 -41.390625 C 44.203125 -38.941406 43.757812 -36.820312 42.875 -35.03125 C 42 -33.238281 40.878906 -31.703125 39.515625 -30.421875 C 38.148438 -29.140625 36.613281 -28.113281 34.90625 -27.34375 C 33.195312 -26.582031 31.519531 -26.003906 29.875 -25.609375 C 31.6875 -23.046875 33.5625 -20.507812 35.5 -18 C 37.4375 -15.5 39.429688 -13.054688 41.484375 -10.671875 C 42.617188 -9.359375 43.664062 -8.1875 44.625 -7.15625 C 45.59375 -6.132812 46.632812 -5.253906 47.75 -4.515625 C 48.863281 -3.773438 50.101562 -3.175781 51.46875 -2.71875 C 52.832031 -2.269531 54.476562 -1.929688 56.40625 -1.703125 L 56.921875 -1.359375 L 57.09375 0.171875 L 56.921875 0.515625 C 55.671875 0.566406 54.25 0.632812 52.65625 0.71875 C 51.0625 0.8125 49.8125 0.859375 48.90625 0.859375 C 47.425781 0.859375 46.144531 0.6875 45.0625 0.34375 C 43.976562 0 42.925781 -0.539062 41.90625 -1.28125 C 40.882812 -2.019531 39.84375 -2.984375 38.78125 -4.171875 C 37.726562 -5.367188 36.519531 -6.796875 35.15625 -8.453125 C 34.988281 -8.617188 34.492188 -9.285156 33.671875 -10.453125 C 32.847656 -11.617188 31.851562 -13.007812 30.6875 -14.625 C 29.519531 -16.25 28.296875 -17.984375 27.015625 -19.828125 C 25.734375 -21.679688 24.550781 -23.40625 23.46875 -25 L 17.234375 -25 C 17.234375 -23.46875 17.234375 -21.789062 17.234375 -19.96875 C 17.234375 -18.144531 17.25 -16.410156 17.28125 -14.765625 C 17.3125 -13.117188 17.335938 -11.625 17.359375 -10.28125 C 17.390625 -8.945312 17.4375 -7.992188 17.5 -7.421875 C 17.613281 -5.773438 17.894531 -4.625 18.34375 -3.96875 C 18.800781 -3.3125 19.203125 -2.84375 19.546875 -2.5625 C 20.054688 -2.28125 20.582031 -2.066406 21.125 -1.921875 C 21.664062 -1.773438 22.675781 -1.703125 24.15625 -1.703125 L 24.5 -1.359375 L 24.75 0.171875 Z M 25 -28.765625 C 29.726562 -28.765625 33.128906 -29.859375 35.203125 -32.046875 C 37.273438 -34.234375 38.3125 -37.175781 38.3125 -40.875 C 38.3125 -44.34375 37.128906 -47.015625 34.765625 -48.890625 C 32.410156 -50.773438 29.1875 -51.71875 25.09375 -51.71875 L 17.671875 -51.71875 C 17.554688 -50.070312 17.484375 -48.675781 17.453125 -47.53125 C 17.421875 -46.394531 17.375 -45.398438 17.3125 -44.546875 C 17.257812 -43.691406 17.234375 -42.921875 17.234375 -42.234375 C 17.234375 -41.554688 17.234375 -40.90625 17.234375 -40.28125 L 17.234375 -31.921875 C 17.234375 -31.179688 17.257812 -30.597656 17.3125 -30.171875 C 17.375 -29.742188 17.519531 -29.429688 17.75 -29.234375 C 17.976562 -29.035156 18.304688 -28.90625 18.734375 -28.84375 C 19.160156 -28.789062 19.742188 -28.765625 20.484375 -28.765625 Z M 25 -28.765625 "/></g></g></g><g fill="#edffcc" fill-opacity="1"><g transform="translate(203.022589, 137.403902)"><g><path d="M 27.65625 -0.59375 C 27.820312 -1.21875 27.945312 -2.15625 28.03125 -3.40625 C 28.113281 -4.664062 28.242188 -5.832031 28.421875 -6.90625 L 28.328125 -7.171875 C 27.585938 -6.140625 26.707031 -5.140625 25.6875 -4.171875 C 24.664062 -3.210938 23.539062 -2.347656 22.3125 -1.578125 C 21.09375 -0.804688 19.785156 -0.195312 18.390625 0.25 C 16.992188 0.707031 15.53125 0.9375 14 0.9375 C 12.226562 0.9375 10.660156 0.625 9.296875 0 C 7.929688 -0.625 6.789062 -1.445312 5.875 -2.46875 C 4.96875 -3.5 4.285156 -4.695312 3.828125 -6.0625 C 3.378906 -7.425781 3.15625 -8.847656 3.15625 -10.328125 C 3.15625 -12.429688 3.640625 -14.265625 4.609375 -15.828125 C 5.578125 -17.390625 6.859375 -18.6875 8.453125 -19.71875 C 9.929688 -20.625 11.679688 -21.359375 13.703125 -21.921875 C 15.722656 -22.492188 17.6875 -22.910156 19.59375 -23.171875 C 21.5 -23.429688 23.21875 -23.601562 24.75 -23.6875 C 26.28125 -23.769531 27.304688 -23.8125 27.828125 -23.8125 L 29.015625 -23.8125 C 28.960938 -25.914062 28.847656 -27.578125 28.671875 -28.796875 C 28.503906 -30.023438 28.28125 -31.035156 28 -31.828125 C 27.363281 -33.535156 26.28125 -34.773438 24.75 -35.546875 C 23.21875 -36.316406 21.367188 -36.703125 19.203125 -36.703125 C 18.296875 -36.703125 17.3125 -36.613281 16.25 -36.4375 C 15.195312 -36.269531 14.203125 -35.957031 13.265625 -35.5 C 12.328125 -35.039062 11.515625 -34.398438 10.828125 -33.578125 C 10.148438 -32.753906 9.753906 -31.6875 9.640625 -30.375 L 9.296875 -30.125 L 7.421875 -30.125 L 6.65625 -36.4375 L 6.90625 -36.953125 C 7.195312 -37.296875 7.796875 -37.664062 8.703125 -38.0625 C 9.617188 -38.457031 10.6875 -38.835938 11.90625 -39.203125 C 13.125 -39.578125 14.488281 -39.890625 16 -40.140625 C 17.507812 -40.398438 19.003906 -40.53125 20.484375 -40.53125 C 22.535156 -40.53125 24.441406 -40.257812 26.203125 -39.71875 C 27.960938 -39.1875 29.484375 -38.378906 30.765625 -37.296875 C 32.046875 -36.210938 33.054688 -34.859375 33.796875 -33.234375 C 34.535156 -31.617188 34.90625 -29.726562 34.90625 -27.5625 C 34.90625 -25.175781 34.890625 -23.054688 34.859375 -21.203125 C 34.828125 -19.359375 34.785156 -17.648438 34.734375 -16.078125 C 34.679688 -14.515625 34.640625 -12.976562 34.609375 -11.46875 C 34.578125 -9.96875 34.5625 -8.363281 34.5625 -6.65625 C 34.675781 -5.34375 34.816406 -4.390625 34.984375 -3.796875 C 35.160156 -3.203125 35.445312 -2.757812 35.84375 -2.46875 C 36.300781 -2.019531 36.96875 -1.75 37.84375 -1.65625 C 38.726562 -1.570312 39.625 -1.53125 40.53125 -1.53125 L 40.875 -1.1875 L 40.96875 0 L 40.875 0.34375 C 39.851562 0.226562 38.742188 0.140625 37.546875 0.078125 C 36.359375 0.0234375 35.191406 0 34.046875 0 C 31.890625 0 29.925781 0.0820312 28.15625 0.25 Z M 27.65625 -9.8125 C 27.820312 -10.09375 28.003906 -10.429688 28.203125 -10.828125 C 28.398438 -11.234375 28.53125 -11.722656 28.59375 -12.296875 L 29.015625 -20.828125 L 28.25 -20.828125 C 25.96875 -20.828125 23.6875 -20.695312 21.40625 -20.4375 C 19.132812 -20.1875 17.101562 -19.691406 15.3125 -18.953125 C 13.519531 -18.210938 12.054688 -17.1875 10.921875 -15.875 C 9.785156 -14.5625 9.21875 -12.882812 9.21875 -10.84375 C 9.21875 -8.675781 9.84375 -6.953125 11.09375 -5.671875 C 12.34375 -4.390625 13.960938 -3.75 15.953125 -3.75 C 17.148438 -3.75 18.347656 -3.945312 19.546875 -4.34375 C 20.742188 -4.75 21.867188 -5.265625 22.921875 -5.890625 C 23.972656 -6.515625 24.910156 -7.164062 25.734375 -7.84375 C 26.554688 -8.53125 27.195312 -9.1875 27.65625 -9.8125 Z M 27.65625 -9.8125 "/></g></g></g><g fill="#edffcc" fill-opacity="1"><g transform="translate(245.356208, 137.403902)"><g><path d="M 35.84375 -0.59375 C 36.007812 -1.21875 36.164062 -2.15625 36.3125 -3.40625 C 36.457031 -4.664062 36.585938 -5.773438 36.703125 -6.734375 L 36.609375 -7.078125 C 35.015625 -4.691406 33.050781 -2.757812 30.71875 -1.28125 C 28.382812 0.195312 25.710938 0.9375 22.703125 0.9375 C 19.460938 0.9375 16.660156 0.367188 14.296875 -0.765625 C 11.929688 -1.898438 9.992188 -3.40625 8.484375 -5.28125 C 6.984375 -7.164062 5.863281 -9.316406 5.125 -11.734375 C 4.382812 -14.148438 4.015625 -16.664062 4.015625 -19.28125 C 4.015625 -23.15625 4.609375 -26.441406 5.796875 -29.140625 C 6.992188 -31.847656 8.503906 -34.039062 10.328125 -35.71875 C 12.148438 -37.394531 14.15625 -38.613281 16.34375 -39.375 C 18.53125 -40.144531 20.617188 -40.53125 22.609375 -40.53125 C 25.347656 -40.53125 27.96875 -39.921875 30.46875 -38.703125 C 32.96875 -37.484375 35.101562 -35.421875 36.875 -32.515625 L 37.046875 -32.859375 C 36.929688 -34.160156 36.875 -35.421875 36.875 -36.640625 C 36.875 -37.867188 36.875 -39.140625 36.875 -40.453125 C 36.875 -42.785156 36.875 -44.757812 36.875 -46.375 C 36.875 -48 36.859375 -49.410156 36.828125 -50.609375 C 36.796875 -51.804688 36.765625 -52.859375 36.734375 -53.765625 C 36.710938 -54.671875 36.671875 -55.582031 36.609375 -56.5 C 36.554688 -57.125 36.398438 -57.660156 36.140625 -58.109375 C 35.890625 -58.566406 35.675781 -58.910156 35.5 -59.140625 C 34.9375 -59.765625 34.226562 -60.160156 33.375 -60.328125 C 32.519531 -60.503906 31.632812 -60.59375 30.71875 -60.59375 L 30.375 -60.9375 L 30.375 -62.046875 L 30.71875 -62.390625 L 32.265625 -62.390625 C 33.222656 -62.390625 34.441406 -62.398438 35.921875 -62.421875 C 37.410156 -62.453125 38.691406 -62.554688 39.765625 -62.734375 L 42.75 -63.15625 L 43.265625 -62.390625 C 43.148438 -62.160156 43.050781 -61.742188 42.96875 -61.140625 C 42.882812 -60.546875 42.828125 -59.90625 42.796875 -59.21875 C 42.765625 -58.539062 42.734375 -57.890625 42.703125 -57.265625 C 42.679688 -56.640625 42.671875 -56.15625 42.671875 -55.8125 C 42.671875 -54.90625 42.65625 -54.050781 42.625 -53.25 C 42.601562 -52.457031 42.59375 -51.519531 42.59375 -50.4375 C 42.59375 -49.351562 42.578125 -48.039062 42.546875 -46.5 C 42.515625 -44.96875 42.5 -43.007812 42.5 -40.625 L 42.5 -22.015625 C 42.5 -19.628906 42.515625 -17.664062 42.546875 -16.125 C 42.578125 -14.59375 42.601562 -13.285156 42.625 -12.203125 C 42.65625 -11.117188 42.679688 -10.175781 42.703125 -9.375 C 42.734375 -8.582031 42.78125 -7.675781 42.84375 -6.65625 C 42.957031 -5.34375 43.097656 -4.390625 43.265625 -3.796875 C 43.441406 -3.203125 43.695312 -2.757812 44.03125 -2.46875 C 44.550781 -2.019531 45.234375 -1.75 46.078125 -1.65625 C 46.929688 -1.570312 47.816406 -1.53125 48.734375 -1.53125 L 49.078125 -1.1875 L 49.25 0 L 49.078125 0.34375 C 48.046875 0.226562 46.945312 0.140625 45.78125 0.078125 C 44.613281 0.0234375 43.4375 0 42.25 0 C 40.144531 0 38.207031 0.0820312 36.4375 0.25 Z M 10.5 -19.453125 C 10.5 -17.523438 10.753906 -15.617188 11.265625 -13.734375 C 11.773438 -11.859375 12.539062 -10.195312 13.5625 -8.75 C 14.59375 -7.300781 15.90625 -6.132812 17.5 -5.25 C 19.09375 -4.363281 21 -3.921875 23.21875 -3.921875 C 25.320312 -3.921875 27.210938 -4.316406 28.890625 -5.109375 C 30.566406 -5.910156 31.972656 -6.878906 33.109375 -8.015625 C 34.242188 -9.160156 35.140625 -10.359375 35.796875 -11.609375 C 36.453125 -12.859375 36.8125 -13.9375 36.875 -14.84375 L 36.875 -24.328125 C 36.757812 -25.234375 36.398438 -26.335938 35.796875 -27.640625 C 35.203125 -28.953125 34.347656 -30.21875 33.234375 -31.4375 C 32.128906 -32.664062 30.765625 -33.707031 29.140625 -34.5625 C 27.523438 -35.414062 25.609375 -35.84375 23.390625 -35.84375 C 21.109375 -35.84375 19.15625 -35.375 17.53125 -34.4375 C 15.914062 -33.5 14.582031 -32.257812 13.53125 -30.71875 C 12.476562 -29.1875 11.707031 -27.4375 11.21875 -25.46875 C 10.738281 -23.507812 10.5 -21.503906 10.5 -19.453125 Z M 10.5 -19.453125 "/></g></g></g><g fill="#edffcc" fill-opacity="1"><g transform="translate(296.480887, 137.403902)"><g><path d="M 40.96875 -22.953125 L 39.59375 -22.359375 C 36.519531 -22.359375 33.363281 -22.328125 30.125 -22.265625 C 26.882812 -22.210938 23.695312 -22.1875 20.5625 -22.1875 L 10.5 -22.1875 C 10.4375 -21.789062 10.40625 -21.40625 10.40625 -21.03125 C 10.40625 -20.664062 10.40625 -20.3125 10.40625 -19.96875 C 10.40625 -17.8125 10.71875 -15.75 11.34375 -13.78125 C 11.976562 -11.820312 12.960938 -10.101562 14.296875 -8.625 C 15.628906 -7.144531 17.347656 -5.960938 19.453125 -5.078125 C 21.554688 -4.191406 24.117188 -3.75 27.140625 -3.75 C 28.898438 -3.75 30.789062 -3.929688 32.8125 -4.296875 C 34.832031 -4.671875 36.695312 -5.34375 38.40625 -6.3125 L 39.265625 -5.796875 L 39.265625 -4.265625 L 38.40625 -3.328125 C 37.039062 -2.242188 35.101562 -1.257812 32.59375 -0.375 C 30.09375 0.5 27.304688 0.9375 24.234375 0.9375 C 21.222656 0.9375 18.476562 0.441406 16 -0.546875 C 13.53125 -1.546875 11.394531 -2.957031 9.59375 -4.78125 C 7.800781 -6.601562 6.40625 -8.765625 5.40625 -11.265625 C 4.414062 -13.765625 3.921875 -16.550781 3.921875 -19.625 C 3.921875 -22.757812 4.429688 -25.601562 5.453125 -28.15625 C 6.484375 -30.71875 7.894531 -32.910156 9.6875 -34.734375 C 11.476562 -36.554688 13.582031 -37.976562 16 -39 C 18.414062 -40.019531 21.019531 -40.53125 23.8125 -40.53125 C 25.289062 -40.53125 26.953125 -40.332031 28.796875 -39.9375 C 30.648438 -39.539062 32.429688 -38.785156 34.140625 -37.671875 C 35.847656 -36.566406 37.382812 -35.003906 38.75 -32.984375 C 40.113281 -30.960938 41.050781 -28.300781 41.5625 -25 Z M 23.890625 -36.703125 C 22.078125 -36.703125 20.441406 -36.398438 18.984375 -35.796875 C 17.535156 -35.203125 16.253906 -34.40625 15.140625 -33.40625 C 14.035156 -32.414062 13.125 -31.25 12.40625 -29.90625 C 11.695312 -28.570312 11.203125 -27.164062 10.921875 -25.6875 L 14.25 -25.6875 C 17.320312 -25.6875 20.304688 -25.726562 23.203125 -25.8125 C 26.109375 -25.894531 29.15625 -26.023438 32.34375 -26.203125 C 33.082031 -26.253906 33.578125 -26.453125 33.828125 -26.796875 C 34.085938 -27.140625 34.21875 -27.539062 34.21875 -28 C 34.21875 -28.332031 34.1875 -28.640625 34.125 -28.921875 C 34.070312 -29.210938 33.988281 -29.5 33.875 -29.78125 C 33.25 -31.945312 32.082031 -33.640625 30.375 -34.859375 C 28.675781 -36.085938 26.515625 -36.703125 23.890625 -36.703125 Z M 23.890625 -36.703125 "/></g></g></g><g fill="#edffcc" fill-opacity="1"><g transform="translate(341.289656, 137.403902)"><g><path d="M 1.875 -62.046875 L 2.21875 -62.390625 L 3.75 -62.390625 C 4.71875 -62.390625 5.941406 -62.398438 7.421875 -62.421875 C 8.898438 -62.453125 10.179688 -62.554688 11.265625 -62.734375 L 14.25 -63.15625 L 14.765625 -62.390625 C 14.648438 -62.160156 14.5625 -61.742188 14.5 -61.140625 C 14.445312 -60.546875 14.390625 -59.90625 14.328125 -59.21875 C 14.273438 -58.539062 14.25 -57.890625 14.25 -57.265625 C 14.25 -56.640625 14.25 -56.15625 14.25 -55.8125 C 14.25 -54.90625 14.234375 -54.050781 14.203125 -53.25 C 14.179688 -52.457031 14.15625 -51.519531 14.125 -50.4375 C 14.09375 -49.351562 14.0625 -48.039062 14.03125 -46.5 C 14.007812 -44.96875 14 -43.007812 14 -40.625 L 14 -20.3125 L 24.15625 -29.703125 C 24.269531 -29.816406 24.539062 -30.070312 24.96875 -30.46875 C 25.394531 -30.863281 25.832031 -31.273438 26.28125 -31.703125 C 26.738281 -32.128906 27.179688 -32.554688 27.609375 -32.984375 C 28.035156 -33.410156 28.332031 -33.707031 28.5 -33.875 C 29.007812 -34.445312 29.265625 -34.960938 29.265625 -35.421875 C 29.265625 -36.097656 28.820312 -36.578125 27.9375 -36.859375 C 27.0625 -37.148438 26.195312 -37.351562 25.34375 -37.46875 L 25 -37.8125 L 25 -38.828125 L 25.34375 -39.171875 C 26.425781 -39.054688 27.507812 -38.941406 28.59375 -38.828125 C 29.675781 -38.710938 30.785156 -38.65625 31.921875 -38.65625 L 34.3125 -38.65625 C 35.394531 -38.65625 36.488281 -38.710938 37.59375 -38.828125 C 38.707031 -38.941406 39.832031 -39.054688 40.96875 -39.171875 L 41.21875 -38.828125 L 41.21875 -37.640625 L 40.796875 -37.203125 C 40.222656 -37.097656 39.535156 -36.972656 38.734375 -36.828125 C 37.941406 -36.679688 37.234375 -36.410156 36.609375 -36.015625 C 35.753906 -35.503906 34.859375 -34.890625 33.921875 -34.171875 C 32.984375 -33.460938 32.046875 -32.707031 31.109375 -31.90625 C 30.171875 -31.113281 29.257812 -30.316406 28.375 -29.515625 C 27.488281 -28.722656 26.675781 -27.957031 25.9375 -27.21875 L 22.453125 -23.984375 C 22.734375 -23.585938 23.097656 -23.03125 23.546875 -22.3125 C 24.003906 -21.601562 24.691406 -20.707031 25.609375 -19.625 L 33.203125 -10.234375 C 33.992188 -9.273438 34.773438 -8.296875 35.546875 -7.296875 C 36.316406 -6.296875 37.140625 -5.382812 38.015625 -4.5625 C 38.898438 -3.738281 39.851562 -3.039062 40.875 -2.46875 C 41.90625 -1.90625 43.070312 -1.59375 44.375 -1.53125 L 44.640625 -1.1875 L 44.8125 0 L 44.640625 0.34375 C 43.671875 0.457031 42.585938 0.523438 41.390625 0.546875 C 40.191406 0.578125 39 0.59375 37.8125 0.59375 C 36.21875 0.59375 34.707031 -0.113281 33.28125 -1.53125 C 33.113281 -1.707031 32.570312 -2.25 31.65625 -3.15625 C 30.75 -4.0625 29.8125 -5.085938 28.84375 -6.234375 L 22.015625 -15.015625 C 21.046875 -16.328125 20.273438 -17.3125 19.703125 -17.96875 C 19.140625 -18.625 18.546875 -19.265625 17.921875 -19.890625 C 16.671875 -18.742188 15.800781 -17.898438 15.3125 -17.359375 C 14.832031 -16.828125 14.394531 -16.359375 14 -15.953125 C 14 -14.816406 14.007812 -13.847656 14.03125 -13.046875 C 14.0625 -12.253906 14.09375 -11.515625 14.125 -10.828125 C 14.15625 -10.148438 14.179688 -9.484375 14.203125 -8.828125 C 14.234375 -8.179688 14.28125 -7.457031 14.34375 -6.65625 C 14.394531 -5.457031 14.503906 -4.5625 14.671875 -3.96875 C 14.847656 -3.375 15.164062 -2.875 15.625 -2.46875 C 16.070312 -2.070312 16.707031 -1.816406 17.53125 -1.703125 C 18.363281 -1.585938 19.207031 -1.53125 20.0625 -1.53125 L 20.484375 -1.109375 L 20.65625 0 L 20.484375 0.34375 C 20.085938 0.34375 19.488281 0.3125 18.6875 0.25 C 17.894531 0.195312 17.039062 0.15625 16.125 0.125 C 15.21875 0.09375 14.363281 0.0625 13.5625 0.03125 C 12.769531 0.0078125 12.175781 0 11.78125 0 L 10.578125 0 C 10.179688 0 9.570312 0.0078125 8.75 0.03125 C 7.925781 0.0625 7.070312 0.09375 6.1875 0.125 C 5.300781 0.15625 4.445312 0.195312 3.625 0.25 C 2.800781 0.3125 2.191406 0.34375 1.796875 0.34375 L 1.703125 0 L 1.796875 -1.1875 L 2.140625 -1.53125 C 3.046875 -1.53125 3.9375 -1.570312 4.8125 -1.65625 C 5.695312 -1.75 6.367188 -2.019531 6.828125 -2.46875 C 7.285156 -2.875 7.582031 -3.390625 7.71875 -4.015625 C 7.863281 -4.640625 7.992188 -5.519531 8.109375 -6.65625 C 8.160156 -7.394531 8.203125 -8.132812 8.234375 -8.875 C 8.265625 -9.613281 8.289062 -10.476562 8.3125 -11.46875 C 8.34375 -12.46875 8.359375 -13.632812 8.359375 -14.96875 C 8.359375 -16.3125 8.359375 -17.976562 8.359375 -19.96875 L 8.359375 -40.453125 C 8.359375 -42.785156 8.359375 -44.757812 8.359375 -46.375 C 8.359375 -48 8.34375 -49.410156 8.3125 -50.609375 C 8.289062 -51.804688 8.265625 -52.859375 8.234375 -53.765625 C 8.203125 -54.671875 8.160156 -55.582031 8.109375 -56.5 C 8.046875 -57.125 7.882812 -57.660156 7.625 -58.109375 C 7.375 -58.566406 7.164062 -58.910156 7 -59.140625 C 6.425781 -59.765625 5.710938 -60.160156 4.859375 -60.328125 C 4.003906 -60.503906 3.125 -60.59375 2.21875 -60.59375 L 1.875 -60.9375 Z M 1.875 -62.046875 "/></g></g></g><g fill="#edffcc" fill-opacity="1"><g transform="translate(386.098425, 137.403902)"><g/></g></g><g fill="#edffcc" fill-opacity="1"><g transform="translate(406.582433, 137.403902)"><g><path d="M 51.796875 -2.140625 C 49.066406 -1.285156 46.207031 -0.5625 43.21875 0.03125 C 40.238281 0.632812 37.125 0.9375 33.875 0.9375 C 28.925781 0.9375 24.617188 0.1875 20.953125 -1.3125 C 17.285156 -2.820312 14.238281 -4.882812 11.8125 -7.5 C 9.394531 -10.125 7.585938 -13.171875 6.390625 -16.640625 C 5.203125 -20.109375 4.609375 -23.78125 4.609375 -27.65625 C 4.609375 -31.75 5.25 -35.554688 6.53125 -39.078125 C 7.8125 -42.609375 9.703125 -45.679688 12.203125 -48.296875 C 14.703125 -50.921875 17.800781 -52.984375 21.5 -54.484375 C 25.195312 -55.992188 29.492188 -56.75 34.390625 -56.75 C 35.421875 -56.75 36.660156 -56.707031 38.109375 -56.625 C 39.554688 -56.539062 41.078125 -56.382812 42.671875 -56.15625 C 44.265625 -55.925781 45.882812 -55.625 47.53125 -55.25 C 49.1875 -54.882812 50.753906 -54.421875 52.234375 -53.859375 L 52.40625 -53.078125 L 50.953125 -44.8125 L 48.5625 -44.8125 L 48.21875 -45.0625 C 47.820312 -47.332031 46.5 -49.09375 44.25 -50.34375 C 42 -51.601562 38.570312 -52.234375 33.96875 -52.234375 C 27.539062 -52.234375 22.644531 -50.894531 19.28125 -48.21875 C 17.914062 -47.132812 16.75 -45.851562 15.78125 -44.375 C 14.820312 -42.894531 14.015625 -41.273438 13.359375 -39.515625 C 12.703125 -37.753906 12.21875 -35.890625 11.90625 -33.921875 C 11.59375 -31.960938 11.4375 -30.015625 11.4375 -28.078125 C 11.4375 -24.265625 11.988281 -20.847656 13.09375 -17.828125 C 14.207031 -14.816406 15.726562 -12.269531 17.65625 -10.1875 C 19.59375 -8.113281 21.898438 -6.519531 24.578125 -5.40625 C 27.253906 -4.300781 30.15625 -3.75 33.28125 -3.75 C 34.25 -3.75 35.34375 -3.789062 36.5625 -3.875 C 37.789062 -3.96875 38.988281 -4.097656 40.15625 -4.265625 C 41.320312 -4.429688 42.359375 -4.628906 43.265625 -4.859375 C 44.179688 -5.085938 44.804688 -5.316406 45.140625 -5.546875 C 45.597656 -5.828125 45.828125 -6.425781 45.828125 -7.34375 C 45.828125 -7.738281 45.828125 -8.273438 45.828125 -8.953125 C 45.828125 -9.640625 45.828125 -10.367188 45.828125 -11.140625 C 45.828125 -11.910156 45.8125 -12.675781 45.78125 -13.4375 C 45.757812 -14.207031 45.71875 -14.878906 45.65625 -15.453125 C 45.539062 -16.929688 45.238281 -18.050781 44.75 -18.8125 C 44.269531 -19.582031 43.863281 -20.082031 43.53125 -20.3125 C 43.007812 -20.707031 42.238281 -20.945312 41.21875 -21.03125 C 40.195312 -21.125 39.226562 -21.171875 38.3125 -21.171875 L 37.890625 -21.5 L 37.640625 -23.390625 L 37.8125 -23.71875 C 38.207031 -23.71875 38.84375 -23.691406 39.71875 -23.640625 C 40.601562 -23.585938 41.515625 -23.53125 42.453125 -23.46875 C 43.390625 -23.414062 44.300781 -23.359375 45.1875 -23.296875 C 46.070312 -23.242188 46.710938 -23.21875 47.109375 -23.21875 L 49.671875 -23.21875 C 50.066406 -23.21875 50.601562 -23.242188 51.28125 -23.296875 C 51.96875 -23.359375 52.679688 -23.414062 53.421875 -23.46875 C 54.160156 -23.53125 54.867188 -23.585938 55.546875 -23.640625 C 56.234375 -23.691406 56.78125 -23.71875 57.1875 -23.71875 L 57.34375 -23.390625 L 57.1875 -21.34375 L 56.75 -21 C 55.101562 -21 53.953125 -20.523438 53.296875 -19.578125 C 52.640625 -18.640625 52.253906 -17.265625 52.140625 -15.453125 C 52.023438 -14.023438 51.953125 -12.5 51.921875 -10.875 C 51.898438 -9.257812 51.890625 -8.050781 51.890625 -7.25 C 51.890625 -6.394531 51.898438 -5.46875 51.921875 -4.46875 C 51.953125 -3.476562 52.023438 -2.84375 52.140625 -2.5625 Z M 51.796875 -2.140625 "/></g></g></g><g fill="#edffcc" fill-opacity="1"><g transform="translate(467.010262, 137.403902)"><g><path d="M 15.109375 -30.21875 C 15.671875 -31.289062 16.304688 -32.425781 17.015625 -33.625 C 17.734375 -34.820312 18.546875 -35.929688 19.453125 -36.953125 C 20.367188 -37.972656 21.410156 -38.820312 22.578125 -39.5 C 23.742188 -40.1875 25.066406 -40.53125 26.546875 -40.53125 C 27.566406 -40.53125 28.71875 -40.375 30 -40.0625 C 31.28125 -39.75 32.144531 -39.335938 32.59375 -38.828125 L 33.28125 -38.0625 L 32.265625 -31.484375 L 29.4375 -31.484375 C 29.269531 -32.285156 28.828125 -33.015625 28.109375 -33.671875 C 27.398438 -34.328125 26.304688 -34.65625 24.828125 -34.65625 C 23.410156 -34.65625 22.101562 -34.238281 20.90625 -33.40625 C 19.707031 -32.582031 18.664062 -31.546875 17.78125 -30.296875 C 16.90625 -29.046875 16.222656 -27.722656 15.734375 -26.328125 C 15.253906 -24.929688 15.015625 -23.664062 15.015625 -22.53125 L 15.015625 -14.9375 C 15.015625 -13.6875 15.03125 -12.675781 15.0625 -11.90625 C 15.09375 -11.132812 15.117188 -10.476562 15.140625 -9.9375 C 15.171875 -9.394531 15.203125 -8.9375 15.234375 -8.5625 C 15.265625 -8.195312 15.28125 -7.816406 15.28125 -7.421875 L 15.359375 -6.65625 C 15.472656 -5.800781 15.597656 -4.988281 15.734375 -4.21875 C 15.878906 -3.457031 16.179688 -2.875 16.640625 -2.46875 C 16.921875 -2.25 17.332031 -2.082031 17.875 -1.96875 C 18.414062 -1.851562 18.984375 -1.765625 19.578125 -1.703125 C 20.179688 -1.648438 20.765625 -1.609375 21.328125 -1.578125 C 21.898438 -1.546875 22.359375 -1.53125 22.703125 -1.53125 L 23.125 -1.109375 L 23.296875 0 L 23.125 0.34375 C 22.726562 0.34375 22.085938 0.3125 21.203125 0.25 C 20.328125 0.195312 19.40625 0.15625 18.4375 0.125 C 17.46875 0.09375 16.539062 0.0625 15.65625 0.03125 C 14.78125 0.0078125 14.140625 0 13.734375 0 L 11.6875 0 C 11.289062 0 10.679688 0.0078125 9.859375 0.03125 C 9.035156 0.0625 8.164062 0.09375 7.25 0.125 C 6.34375 0.15625 5.472656 0.195312 4.640625 0.25 C 3.816406 0.3125 3.207031 0.34375 2.8125 0.34375 L 2.734375 0 L 2.8125 -1.1875 L 3.15625 -1.53125 C 4.0625 -1.53125 4.957031 -1.570312 5.84375 -1.65625 C 6.726562 -1.75 7.398438 -2.019531 7.859375 -2.46875 C 8.304688 -2.875 8.601562 -3.390625 8.75 -4.015625 C 8.894531 -4.640625 9.019531 -5.519531 9.125 -6.65625 L 9.21875 -7.421875 C 9.269531 -7.992188 9.3125 -8.707031 9.34375 -9.5625 C 9.375 -10.414062 9.390625 -11.863281 9.390625 -13.90625 L 9.390625 -24.40625 C 9.390625 -25.601562 9.390625 -26.613281 9.390625 -27.4375 C 9.390625 -28.257812 9.375 -28.984375 9.34375 -29.609375 C 9.3125 -30.234375 9.28125 -30.800781 9.25 -31.3125 C 9.226562 -31.832031 9.1875 -32.375 9.125 -32.9375 C 9.019531 -33.5625 8.851562 -34.113281 8.625 -34.59375 C 8.394531 -35.082031 8.191406 -35.414062 8.015625 -35.59375 C 7.453125 -36.269531 6.742188 -36.679688 5.890625 -36.828125 C 5.035156 -36.972656 4.15625 -37.046875 3.25 -37.046875 L 2.90625 -37.375 L 2.90625 -38.578125 L 3.25 -38.828125 L 4.78125 -38.828125 C 5.75 -38.828125 6.972656 -38.84375 8.453125 -38.875 C 9.929688 -38.90625 11.210938 -39.003906 12.296875 -39.171875 L 15.28125 -39.59375 L 15.78125 -38.828125 C 15.445312 -37.640625 15.207031 -36.273438 15.0625 -34.734375 C 14.914062 -33.203125 14.84375 -31.722656 14.84375 -30.296875 Z M 15.109375 -30.21875 "/></g></g></g><g fill="#edffcc" fill-opacity="1"><g transform="translate(501.833069, 137.403902)"><g><path d="M 40.96875 -22.953125 L 39.59375 -22.359375 C 36.519531 -22.359375 33.363281 -22.328125 30.125 -22.265625 C 26.882812 -22.210938 23.695312 -22.1875 20.5625 -22.1875 L 10.5 -22.1875 C 10.4375 -21.789062 10.40625 -21.40625 10.40625 -21.03125 C 10.40625 -20.664062 10.40625 -20.3125 10.40625 -19.96875 C 10.40625 -17.8125 10.71875 -15.75 11.34375 -13.78125 C 11.976562 -11.820312 12.960938 -10.101562 14.296875 -8.625 C 15.628906 -7.144531 17.347656 -5.960938 19.453125 -5.078125 C 21.554688 -4.191406 24.117188 -3.75 27.140625 -3.75 C 28.898438 -3.75 30.789062 -3.929688 32.8125 -4.296875 C 34.832031 -4.671875 36.695312 -5.34375 38.40625 -6.3125 L 39.265625 -5.796875 L 39.265625 -4.265625 L 38.40625 -3.328125 C 37.039062 -2.242188 35.101562 -1.257812 32.59375 -0.375 C 30.09375 0.5 27.304688 0.9375 24.234375 0.9375 C 21.222656 0.9375 18.476562 0.441406 16 -0.546875 C 13.53125 -1.546875 11.394531 -2.957031 9.59375 -4.78125 C 7.800781 -6.601562 6.40625 -8.765625 5.40625 -11.265625 C 4.414062 -13.765625 3.921875 -16.550781 3.921875 -19.625 C 3.921875 -22.757812 4.429688 -25.601562 5.453125 -28.15625 C 6.484375 -30.71875 7.894531 -32.910156 9.6875 -34.734375 C 11.476562 -36.554688 13.582031 -37.976562 16 -39 C 18.414062 -40.019531 21.019531 -40.53125 23.8125 -40.53125 C 25.289062 -40.53125 26.953125 -40.332031 28.796875 -39.9375 C 30.648438 -39.539062 32.429688 -38.785156 34.140625 -37.671875 C 35.847656 -36.566406 37.382812 -35.003906 38.75 -32.984375 C 40.113281 -30.960938 41.050781 -28.300781 41.5625 -25 Z M 23.890625 -36.703125 C 22.078125 -36.703125 20.441406 -36.398438 18.984375 -35.796875 C 17.535156 -35.203125 16.253906 -34.40625 15.140625 -33.40625 C 14.035156 -32.414062 13.125 -31.25 12.40625 -29.90625 C 11.695312 -28.570312 11.203125 -27.164062 10.921875 -25.6875 L 14.25 -25.6875 C 17.320312 -25.6875 20.304688 -25.726562 23.203125 -25.8125 C 26.109375 -25.894531 29.15625 -26.023438 32.34375 -26.203125 C 33.082031 -26.253906 33.578125 -26.453125 33.828125 -26.796875 C 34.085938 -27.140625 34.21875 -27.539062 34.21875 -28 C 34.21875 -28.332031 34.1875 -28.640625 34.125 -28.921875 C 34.070312 -29.210938 33.988281 -29.5 33.875 -29.78125 C 33.25 -31.945312 32.082031 -33.640625 30.375 -34.859375 C 28.675781 -36.085938 26.515625 -36.703125 23.890625 -36.703125 Z M 23.890625 -36.703125 "/></g></g></g><g fill="#edffcc" fill-opacity="1"><g transform="translate(546.641838, 137.403902)"><g><path d="M 40.96875 -22.953125 L 39.59375 -22.359375 C 36.519531 -22.359375 33.363281 -22.328125 30.125 -22.265625 C 26.882812 -22.210938 23.695312 -22.1875 20.5625 -22.1875 L 10.5 -22.1875 C 10.4375 -21.789062 10.40625 -21.40625 10.40625 -21.03125 C 10.40625 -20.664062 10.40625 -20.3125 10.40625 -19.96875 C 10.40625 -17.8125 10.71875 -15.75 11.34375 -13.78125 C 11.976562 -11.820312 12.960938 -10.101562 14.296875 -8.625 C 15.628906 -7.144531 17.347656 -5.960938 19.453125 -5.078125 C 21.554688 -4.191406 24.117188 -3.75 27.140625 -3.75 C 28.898438 -3.75 30.789062 -3.929688 32.8125 -4.296875 C 34.832031 -4.671875 36.695312 -5.34375 38.40625 -6.3125 L 39.265625 -5.796875 L 39.265625 -4.265625 L 38.40625 -3.328125 C 37.039062 -2.242188 35.101562 -1.257812 32.59375 -0.375 C 30.09375 0.5 27.304688 0.9375 24.234375 0.9375 C 21.222656 0.9375 18.476562 0.441406 16 -0.546875 C 13.53125 -1.546875 11.394531 -2.957031 9.59375 -4.78125 C 7.800781 -6.601562 6.40625 -8.765625 5.40625 -11.265625 C 4.414062 -13.765625 3.921875 -16.550781 3.921875 -19.625 C 3.921875 -22.757812 4.429688 -25.601562 5.453125 -28.15625 C 6.484375 -30.71875 7.894531 -32.910156 9.6875 -34.734375 C 11.476562 -36.554688 13.582031 -37.976562 16 -39 C 18.414062 -40.019531 21.019531 -40.53125 23.8125 -40.53125 C 25.289062 -40.53125 26.953125 -40.332031 28.796875 -39.9375 C 30.648438 -39.539062 32.429688 -38.785156 34.140625 -37.671875 C 35.847656 -36.566406 37.382812 -35.003906 38.75 -32.984375 C 40.113281 -30.960938 41.050781 -28.300781 41.5625 -25 Z M 23.890625 -36.703125 C 22.078125 -36.703125 20.441406 -36.398438 18.984375 -35.796875 C 17.535156 -35.203125 16.253906 -34.40625 15.140625 -33.40625 C 14.035156 -32.414062 13.125 -31.25 12.40625 -29.90625 C 11.695312 -28.570312 11.203125 -27.164062 10.921875 -25.6875 L 14.25 -25.6875 C 17.320312 -25.6875 20.304688 -25.726562 23.203125 -25.8125 C 26.109375 -25.894531 29.15625 -26.023438 32.34375 -26.203125 C 33.082031 -26.253906 33.578125 -26.453125 33.828125 -26.796875 C 34.085938 -27.140625 34.21875 -27.539062 34.21875 -28 C 34.21875 -28.332031 34.1875 -28.640625 34.125 -28.921875 C 34.070312 -29.210938 33.988281 -29.5 33.875 -29.78125 C 33.25 -31.945312 32.082031 -33.640625 30.375 -34.859375 C 28.675781 -36.085938 26.515625 -36.703125 23.890625 -36.703125 Z M 23.890625 -36.703125 "/></g></g></g><g fill="#edffcc" fill-opacity="1"><g transform="translate(591.450632, 137.403902)"><g><path d="M 15.1875 -31.921875 C 16.664062 -34.367188 18.570312 -36.414062 20.90625 -38.0625 C 23.238281 -39.707031 26.140625 -40.53125 29.609375 -40.53125 C 31.203125 -40.53125 32.796875 -40.300781 34.390625 -39.84375 C 35.984375 -39.394531 37.445312 -38.6875 38.78125 -37.71875 C 40.125 -36.75 41.234375 -35.507812 42.109375 -34 C 42.992188 -32.5 43.578125 -30.722656 43.859375 -28.671875 C 44.035156 -27.191406 44.132812 -25.625 44.15625 -23.96875 C 44.1875 -22.320312 44.203125 -20.675781 44.203125 -19.03125 C 44.203125 -16.976562 44.21875 -14.914062 44.25 -12.84375 C 44.28125 -10.769531 44.296875 -8.707031 44.296875 -6.65625 C 44.410156 -5.34375 44.550781 -4.390625 44.71875 -3.796875 C 44.882812 -3.203125 45.140625 -2.757812 45.484375 -2.46875 C 45.992188 -2.019531 46.691406 -1.75 47.578125 -1.65625 C 48.460938 -1.570312 49.359375 -1.53125 50.265625 -1.53125 L 50.53125 -1.1875 L 50.6875 0 L 50.53125 0.34375 C 49.5625 0.226562 48.476562 0.140625 47.28125 0.078125 C 46.082031 0.0234375 44.914062 0 43.78125 0 C 41.613281 0 39.648438 0.0820312 37.890625 0.25 L 37.296875 -0.59375 C 37.523438 -1.332031 37.695312 -2.300781 37.8125 -3.5 C 37.925781 -4.695312 38.007812 -5.75 38.0625 -6.65625 C 38.175781 -9.039062 38.257812 -11.382812 38.3125 -13.6875 C 38.375 -16 38.40625 -17.921875 38.40625 -19.453125 C 38.40625 -20.765625 38.363281 -22.1875 38.28125 -23.71875 C 38.195312 -25.257812 38.007812 -26.597656 37.71875 -27.734375 C 37.15625 -30.410156 35.988281 -32.398438 34.21875 -33.703125 C 32.457031 -35.015625 30.410156 -35.671875 28.078125 -35.671875 C 26.203125 -35.671875 24.453125 -35.269531 22.828125 -34.46875 C 21.203125 -33.675781 19.820312 -32.695312 18.6875 -31.53125 C 17.550781 -30.363281 16.65625 -29.140625 16 -27.859375 C 15.34375 -26.578125 15.015625 -25.484375 15.015625 -24.578125 L 15.015625 -14.9375 C 15.015625 -13.6875 15.015625 -12.660156 15.015625 -11.859375 C 15.015625 -11.066406 15.03125 -10.382812 15.0625 -9.8125 C 15.09375 -9.25 15.132812 -8.722656 15.1875 -8.234375 C 15.25 -7.753906 15.304688 -7.226562 15.359375 -6.65625 C 15.472656 -5.457031 15.597656 -4.5625 15.734375 -3.96875 C 15.878906 -3.375 16.179688 -2.875 16.640625 -2.46875 C 17.097656 -2.070312 17.738281 -1.816406 18.5625 -1.703125 C 19.382812 -1.585938 20.222656 -1.53125 21.078125 -1.53125 L 21.5 -1.109375 L 21.671875 0 L 21.5 0.34375 C 21.101562 0.34375 20.503906 0.3125 19.703125 0.25 C 18.910156 0.195312 18.054688 0.15625 17.140625 0.125 C 16.234375 0.09375 15.382812 0.0625 14.59375 0.03125 C 13.800781 0.0078125 13.203125 0 12.796875 0 L 11.609375 0 C 11.210938 0 10.597656 0.0078125 9.765625 0.03125 C 8.941406 0.0625 8.085938 0.09375 7.203125 0.125 C 6.328125 0.15625 5.472656 0.195312 4.640625 0.25 C 3.816406 0.3125 3.207031 0.34375 2.8125 0.34375 L 2.734375 0 L 2.8125 -1.1875 L 3.15625 -1.53125 C 4.0625 -1.53125 4.957031 -1.570312 5.84375 -1.65625 C 6.726562 -1.75 7.398438 -2.019531 7.859375 -2.46875 C 8.304688 -2.875 8.601562 -3.390625 8.75 -4.015625 C 8.894531 -4.640625 9.019531 -5.519531 9.125 -6.65625 C 9.1875 -7.5625 9.242188 -8.484375 9.296875 -9.421875 C 9.359375 -10.367188 9.390625 -11.863281 9.390625 -13.90625 L 9.390625 -24.40625 C 9.390625 -25.601562 9.390625 -26.613281 9.390625 -27.4375 C 9.390625 -28.257812 9.375 -28.984375 9.34375 -29.609375 C 9.3125 -30.234375 9.28125 -30.800781 9.25 -31.3125 C 9.226562 -31.832031 9.1875 -32.375 9.125 -32.9375 C 9.019531 -33.5625 8.851562 -34.113281 8.625 -34.59375 C 8.394531 -35.082031 8.191406 -35.414062 8.015625 -35.59375 C 7.453125 -36.269531 6.742188 -36.679688 5.890625 -36.828125 C 5.035156 -36.972656 4.15625 -37.046875 3.25 -37.046875 L 2.90625 -37.375 L 2.90625 -38.578125 L 3.25 -38.828125 L 4.78125 -38.828125 C 5.75 -38.828125 6.972656 -38.84375 8.453125 -38.875 C 9.929688 -38.90625 11.210938 -39.003906 12.296875 -39.171875 L 15.28125 -39.59375 L 15.78125 -38.828125 C 15.5 -38.085938 15.300781 -37.078125 15.1875 -35.796875 C 15.070312 -34.515625 14.988281 -33.28125 14.9375 -32.09375 Z M 15.1875 -31.921875 "/></g></g></g><g fill="#edffcc" fill-opacity="1"><g transform="translate(149.979299, 171.650544)"><g><path d="M 2 -12.203125 C 2 -14.429688 2.5625 -16.503906 3.6875 -18.421875 C 4.8125 -20.335938 6.320312 -21.863281 8.21875 -23 C 10.125 -24.132812 12.207031 -24.703125 14.46875 -24.703125 C 16.695312 -24.703125 18.769531 -24.132812 20.6875 -23 C 22.601562 -21.863281 24.128906 -20.335938 25.265625 -18.421875 C 26.398438 -16.503906 26.96875 -14.429688 26.96875 -12.203125 C 26.96875 -9.953125 26.40625 -7.867188 25.28125 -5.953125 C 24.15625 -4.035156 22.628906 -2.519531 20.703125 -1.40625 C 18.773438 -0.289062 16.695312 0.265625 14.46875 0.265625 C 12.207031 0.265625 10.117188 -0.285156 8.203125 -1.390625 C 6.296875 -2.492188 4.785156 -3.992188 3.671875 -5.890625 C 2.554688 -7.796875 2 -9.898438 2 -12.203125 Z M 5.375 -12.171875 C 5.375 -10.503906 5.78125 -8.957031 6.59375 -7.53125 C 7.40625 -6.113281 8.515625 -4.988281 9.921875 -4.15625 C 11.328125 -3.320312 12.863281 -2.90625 14.53125 -2.90625 C 16.195312 -2.90625 17.722656 -3.316406 19.109375 -4.140625 C 20.492188 -4.960938 21.585938 -6.085938 22.390625 -7.515625 C 23.191406 -8.953125 23.59375 -10.515625 23.59375 -12.203125 C 23.59375 -13.890625 23.1875 -15.453125 22.375 -16.890625 C 21.5625 -18.335938 20.457031 -19.476562 19.0625 -20.3125 C 17.664062 -21.144531 16.132812 -21.5625 14.46875 -21.5625 C 12.800781 -21.5625 11.265625 -21.140625 9.859375 -20.296875 C 8.460938 -19.453125 7.363281 -18.304688 6.5625 -16.859375 C 5.769531 -15.421875 5.375 -13.859375 5.375 -12.171875 Z M 5.375 -12.171875 "/></g></g></g><g fill="#edffcc" fill-opacity="1"><g transform="translate(181.008449, 171.650544)"><g><path d="M 16.96875 0 L 11.21875 -9.03125 C 11.039062 -9 10.769531 -8.984375 10.40625 -8.984375 L 6.796875 -8.984375 L 6.796875 0 L 3.515625 0 L 3.515625 -24.4375 L 10.03125 -24.4375 C 11.695312 -24.4375 13.179688 -24.140625 14.484375 -23.546875 C 15.796875 -22.960938 16.820312 -22.101562 17.5625 -20.96875 C 18.3125 -19.832031 18.6875 -18.460938 18.6875 -16.859375 C 18.6875 -15.347656 18.351562 -13.960938 17.6875 -12.703125 C 17.03125 -11.441406 16.015625 -10.484375 14.640625 -9.828125 L 20.78125 0 Z M 10.34375 -12.171875 C 12.101562 -12.171875 13.367188 -12.628906 14.140625 -13.546875 C 14.921875 -14.472656 15.3125 -15.535156 15.3125 -16.734375 C 15.3125 -17.453125 15.144531 -18.160156 14.8125 -18.859375 C 14.488281 -19.554688 13.972656 -20.132812 13.265625 -20.59375 C 12.554688 -21.0625 11.660156 -21.296875 10.578125 -21.296875 L 6.796875 -21.296875 L 6.796875 -12.171875 Z M 10.34375 -12.171875 "/></g></g></g><g fill="#edffcc" fill-opacity="1"><g transform="translate(205.378895, 171.650544)"><g><path d="M 6.796875 -24.4375 L 6.796875 0 L 3.515625 0 L 3.515625 -24.4375 Z M 6.796875 -24.4375 "/></g></g></g><g fill="#edffcc" fill-opacity="1"><g transform="translate(217.750154, 171.650544)"><g><path d="M 22.671875 -2.09375 C 21.929688 -1.507812 20.765625 -0.96875 19.171875 -0.46875 C 17.585938 0.0195312 16.117188 0.265625 14.765625 0.265625 C 12.222656 0.265625 9.984375 -0.253906 8.046875 -1.296875 C 6.109375 -2.347656 4.613281 -3.785156 3.5625 -5.609375 C 2.519531 -7.429688 2 -9.484375 2 -11.765625 C 2 -14.421875 2.5625 -16.722656 3.6875 -18.671875 C 4.8125 -20.617188 6.332031 -22.109375 8.25 -23.140625 C 10.164062 -24.179688 12.257812 -24.703125 14.53125 -24.703125 C 15.90625 -24.703125 17.203125 -24.535156 18.421875 -24.203125 C 19.640625 -23.878906 20.734375 -23.453125 21.703125 -22.921875 L 20.609375 -19.90625 C 19.890625 -20.3125 18.984375 -20.664062 17.890625 -20.96875 C 16.796875 -21.269531 15.8125 -21.421875 14.9375 -21.421875 C 13.039062 -21.421875 11.363281 -21.035156 9.90625 -20.265625 C 8.457031 -19.503906 7.335938 -18.414062 6.546875 -17 C 5.765625 -15.582031 5.375 -13.925781 5.375 -12.03125 C 5.375 -10.269531 5.765625 -8.703125 6.546875 -7.328125 C 7.335938 -5.953125 8.453125 -4.890625 9.890625 -4.140625 C 11.335938 -3.390625 12.988281 -3.015625 14.84375 -3.015625 C 15.695312 -3.015625 16.523438 -3.097656 17.328125 -3.265625 C 18.140625 -3.429688 18.816406 -3.671875 19.359375 -3.984375 L 19.359375 -8.828125 L 14.5 -8.828125 L 14.5 -11.96875 L 22.671875 -11.96875 Z M 22.671875 -2.09375 "/></g></g></g><g fill="#edffcc" fill-opacity="1"><g transform="translate(245.230249, 171.650544)"><g><path d="M 6.796875 -24.4375 L 6.796875 0 L 3.515625 0 L 3.515625 -24.4375 Z M 6.796875 -24.4375 "/></g></g></g><g fill="#edffcc" fill-opacity="1"><g transform="translate(257.601502, 171.650544)"><g><path d="M 24.8125 -24.4375 L 24.8125 0.8125 L 24.703125 0.8125 L 6.765625 -17.40625 L 6.828125 0 L 3.515625 0 L 3.515625 -25.171875 L 3.6875 -25.171875 L 21.59375 -6.765625 L 21.53125 -24.4375 Z M 24.8125 -24.4375 "/></g></g></g><g fill="#edffcc" fill-opacity="1"><g transform="translate(287.98844, 171.650544)"><g><path d="M 16.328125 -6.421875 L 6.921875 -6.421875 L 4.328125 0 L 1.078125 0 L 11.765625 -25.453125 L 11.96875 -25.453125 L 22.640625 0 L 18.859375 0 Z M 15.203125 -9.265625 L 11.734375 -18.1875 L 8.109375 -9.265625 Z M 15.203125 -9.265625 "/></g></g></g><g fill="#edffcc" fill-opacity="1"><g transform="translate(313.744709, 171.650544)"><g><path d="M 6.796875 -24.4375 L 6.796875 -3.171875 L 19.234375 -3.171875 L 19.234375 0 L 3.515625 0 L 3.515625 -24.4375 Z M 6.796875 -24.4375 "/></g></g></g><g fill="#edffcc" fill-opacity="1"><g transform="translate(336.830738, 171.650544)"><g/></g></g><g fill="#edffcc" fill-opacity="1"><g transform="translate(349.573796, 171.650544)"><g><path d="M 21.46875 -1.828125 C 20.675781 -1.304688 19.675781 -0.828125 18.46875 -0.390625 C 17.257812 0.046875 15.945312 0.265625 14.53125 0.265625 C 12.03125 0.265625 9.828125 -0.285156 7.921875 -1.390625 C 6.015625 -2.492188 4.550781 -3.976562 3.53125 -5.84375 C 2.507812 -7.71875 2 -9.78125 2 -12.03125 C 2 -14.4375 2.515625 -16.601562 3.546875 -18.53125 C 4.585938 -20.457031 6.023438 -21.96875 7.859375 -23.0625 C 9.691406 -24.15625 11.769531 -24.703125 14.09375 -24.703125 C 15.46875 -24.703125 16.75 -24.519531 17.9375 -24.15625 C 19.132812 -23.800781 20.207031 -23.332031 21.15625 -22.75 L 19.84375 -19.671875 C 17.96875 -20.929688 16.082031 -21.5625 14.1875 -21.5625 C 12.613281 -21.5625 11.15625 -21.144531 9.8125 -20.3125 C 8.476562 -19.476562 7.410156 -18.34375 6.609375 -16.90625 C 5.804688 -15.476562 5.40625 -13.910156 5.40625 -12.203125 C 5.40625 -10.441406 5.769531 -8.851562 6.5 -7.4375 C 7.238281 -6.019531 8.285156 -4.910156 9.640625 -4.109375 C 11.003906 -3.304688 12.578125 -2.90625 14.359375 -2.90625 C 16.546875 -2.90625 18.453125 -3.523438 20.078125 -4.765625 Z M 21.46875 -1.828125 "/></g></g></g><g fill="#edffcc" fill-opacity="1"><g transform="translate(375.093457, 171.650544)"><g><path d="M 2 -12.203125 C 2 -14.429688 2.5625 -16.503906 3.6875 -18.421875 C 4.8125 -20.335938 6.320312 -21.863281 8.21875 -23 C 10.125 -24.132812 12.207031 -24.703125 14.46875 -24.703125 C 16.695312 -24.703125 18.769531 -24.132812 20.6875 -23 C 22.601562 -21.863281 24.128906 -20.335938 25.265625 -18.421875 C 26.398438 -16.503906 26.96875 -14.429688 26.96875 -12.203125 C 26.96875 -9.953125 26.40625 -7.867188 25.28125 -5.953125 C 24.15625 -4.035156 22.628906 -2.519531 20.703125 -1.40625 C 18.773438 -0.289062 16.695312 0.265625 14.46875 0.265625 C 12.207031 0.265625 10.117188 -0.285156 8.203125 -1.390625 C 6.296875 -2.492188 4.785156 -3.992188 3.671875 -5.890625 C 2.554688 -7.796875 2 -9.898438 2 -12.203125 Z M 5.375 -12.171875 C 5.375 -10.503906 5.78125 -8.957031 6.59375 -7.53125 C 7.40625 -6.113281 8.515625 -4.988281 9.921875 -4.15625 C 11.328125 -3.320312 12.863281 -2.90625 14.53125 -2.90625 C 16.195312 -2.90625 17.722656 -3.316406 19.109375 -4.140625 C 20.492188 -4.960938 21.585938 -6.085938 22.390625 -7.515625 C 23.191406 -8.953125 23.59375 -10.515625 23.59375 -12.203125 C 23.59375 -13.890625 23.1875 -15.453125 22.375 -16.890625 C 21.5625 -18.335938 20.457031 -19.476562 19.0625 -20.3125 C 17.664062 -21.144531 16.132812 -21.5625 14.46875 -21.5625 C 12.800781 -21.5625 11.265625 -21.140625 9.859375 -20.296875 C 8.460938 -19.453125 7.363281 -18.304688 6.5625 -16.859375 C 5.769531 -15.421875 5.375 -13.859375 5.375 -12.171875 Z M 5.375 -12.171875 "/></g></g></g><g fill="#edffcc" fill-opacity="1"><g transform="translate(406.122597, 171.650544)"><g><path d="M 27.8125 -25.21875 L 27.8125 0 L 24.5625 0 L 24.5625 -15.8125 L 15.578125 -3.078125 L 15.515625 -3.078125 L 6.6875 -15.375 L 6.6875 0 L 3.515625 0 L 3.515625 -25.21875 L 3.546875 -25.21875 L 15.578125 -8.171875 L 27.78125 -25.21875 Z M 27.8125 -25.21875 "/></g></g></g><g fill="#edffcc" fill-opacity="1"><g transform="translate(439.517796, 171.650544)"><g><path d="M 10.078125 -24.4375 C 12.734375 -24.4375 14.804688 -23.769531 16.296875 -22.4375 C 17.796875 -21.113281 18.546875 -19.253906 18.546875 -16.859375 C 18.546875 -15.484375 18.269531 -14.195312 17.71875 -13 C 17.164062 -11.8125 16.273438 -10.84375 15.046875 -10.09375 C 13.828125 -9.351562 12.28125 -8.984375 10.40625 -8.984375 L 6.796875 -8.984375 L 6.796875 0 L 3.515625 0 L 3.515625 -24.4375 Z M 10.40625 -12.171875 C 11.582031 -12.171875 12.535156 -12.414062 13.265625 -12.90625 C 13.992188 -13.40625 14.515625 -14.007812 14.828125 -14.71875 C 15.148438 -15.425781 15.3125 -16.117188 15.3125 -16.796875 C 15.3125 -17.960938 14.925781 -19.003906 14.15625 -19.921875 C 13.394531 -20.835938 12.203125 -21.296875 10.578125 -21.296875 L 6.796875 -21.296875 L 6.796875 -12.171875 Z M 10.40625 -12.171875 "/></g></g></g><g fill="#edffcc" fill-opacity="1"><g transform="translate(461.691215, 171.650544)"><g><path d="M 2 -12.203125 C 2 -14.429688 2.5625 -16.503906 3.6875 -18.421875 C 4.8125 -20.335938 6.320312 -21.863281 8.21875 -23 C 10.125 -24.132812 12.207031 -24.703125 14.46875 -24.703125 C 16.695312 -24.703125 18.769531 -24.132812 20.6875 -23 C 22.601562 -21.863281 24.128906 -20.335938 25.265625 -18.421875 C 26.398438 -16.503906 26.96875 -14.429688 26.96875 -12.203125 C 26.96875 -9.953125 26.40625 -7.867188 25.28125 -5.953125 C 24.15625 -4.035156 22.628906 -2.519531 20.703125 -1.40625 C 18.773438 -0.289062 16.695312 0.265625 14.46875 0.265625 C 12.207031 0.265625 10.117188 -0.285156 8.203125 -1.390625 C 6.296875 -2.492188 4.785156 -3.992188 3.671875 -5.890625 C 2.554688 -7.796875 2 -9.898438 2 -12.203125 Z M 5.375 -12.171875 C 5.375 -10.503906 5.78125 -8.957031 6.59375 -7.53125 C 7.40625 -6.113281 8.515625 -4.988281 9.921875 -4.15625 C 11.328125 -3.320312 12.863281 -2.90625 14.53125 -2.90625 C 16.195312 -2.90625 17.722656 -3.316406 19.109375 -4.140625 C 20.492188 -4.960938 21.585938 -6.085938 22.390625 -7.515625 C 23.191406 -8.953125 23.59375 -10.515625 23.59375 -12.203125 C 23.59375 -13.890625 23.1875 -15.453125 22.375 -16.890625 C 21.5625 -18.335938 20.457031 -19.476562 19.0625 -20.3125 C 17.664062 -21.144531 16.132812 -21.5625 14.46875 -21.5625 C 12.800781 -21.5625 11.265625 -21.140625 9.859375 -20.296875 C 8.460938 -19.453125 7.363281 -18.304688 6.5625 -16.859375 C 5.769531 -15.421875 5.375 -13.859375 5.375 -12.171875 Z M 5.375 -12.171875 "/></g></g></g><g fill="#edffcc" fill-opacity="1"><g transform="translate(492.720355, 171.650544)"><g><path d="M 16.15625 -20.078125 C 15.28125 -20.546875 14.34375 -20.925781 13.34375 -21.21875 C 12.351562 -21.507812 11.421875 -21.65625 10.546875 -21.65625 C 9.210938 -21.65625 8.15625 -21.359375 7.375 -20.765625 C 6.601562 -20.171875 6.21875 -19.351562 6.21875 -18.3125 C 6.21875 -17.300781 6.671875 -16.472656 7.578125 -15.828125 C 8.492188 -15.191406 9.796875 -14.554688 11.484375 -13.921875 C 12.753906 -13.472656 13.820312 -12.984375 14.6875 -12.453125 C 15.550781 -11.921875 16.269531 -11.1875 16.84375 -10.25 C 17.414062 -9.320312 17.703125 -8.132812 17.703125 -6.6875 C 17.703125 -5.382812 17.375 -4.203125 16.71875 -3.140625 C 16.070312 -2.078125 15.144531 -1.242188 13.9375 -0.640625 C 12.738281 -0.0351562 11.328125 0.265625 9.703125 0.265625 C 8.191406 0.265625 6.738281 0.0234375 5.34375 -0.453125 C 3.945312 -0.941406 2.71875 -1.554688 1.65625 -2.296875 L 3.109375 -4.90625 C 3.941406 -4.269531 4.941406 -3.734375 6.109375 -3.296875 C 7.285156 -2.859375 8.378906 -2.640625 9.390625 -2.640625 C 10.703125 -2.640625 11.847656 -2.972656 12.828125 -3.640625 C 13.804688 -4.316406 14.296875 -5.320312 14.296875 -6.65625 C 14.296875 -7.78125 13.882812 -8.675781 13.0625 -9.34375 C 12.238281 -10.007812 11.082031 -10.632812 9.59375 -11.21875 C 8.21875 -11.738281 7.070312 -12.242188 6.15625 -12.734375 C 5.25 -13.234375 4.46875 -13.914062 3.8125 -14.78125 C 3.164062 -15.65625 2.84375 -16.742188 2.84375 -18.046875 C 2.84375 -19.960938 3.507812 -21.507812 4.84375 -22.6875 C 6.1875 -23.875 7.929688 -24.5 10.078125 -24.5625 C 12.710938 -24.5625 15.15625 -23.910156 17.40625 -22.609375 Z M 16.15625 -20.078125 "/></g></g></g><g fill="#edffcc" fill-opacity="1"><g transform="translate(514.454369, 171.650544)"><g><path d="M 6.796875 -24.4375 L 6.796875 0 L 3.515625 0 L 3.515625 -24.4375 Z M 6.796875 -24.4375 "/></g></g></g><g fill="#edffcc" fill-opacity="1"><g transform="translate(526.825634, 171.650544)"><g><path d="M 17.953125 -24.4375 L 17.953125 -21.296875 L 11.390625 -21.296875 L 11.390625 0 L 8.109375 0 L 8.109375 -21.296875 L 1.71875 -21.296875 L 1.71875 -24.4375 Z M 17.953125 -24.4375 "/></g></g></g><g fill="#edffcc" fill-opacity="1"><g transform="translate(548.559649, 171.650544)"><g><path d="M 6.796875 -24.4375 L 6.796875 0 L 3.515625 0 L 3.515625 -24.4375 Z M 6.796875 -24.4375 "/></g></g></g><g fill="#edffcc" fill-opacity="1"><g transform="translate(560.930914, 171.650544)"><g><path d="M 2 -12.203125 C 2 -14.429688 2.5625 -16.503906 3.6875 -18.421875 C 4.8125 -20.335938 6.320312 -21.863281 8.21875 -23 C 10.125 -24.132812 12.207031 -24.703125 14.46875 -24.703125 C 16.695312 -24.703125 18.769531 -24.132812 20.6875 -23 C 22.601562 -21.863281 24.128906 -20.335938 25.265625 -18.421875 C 26.398438 -16.503906 26.96875 -14.429688 26.96875 -12.203125 C 26.96875 -9.953125 26.40625 -7.867188 25.28125 -5.953125 C 24.15625 -4.035156 22.628906 -2.519531 20.703125 -1.40625 C 18.773438 -0.289062 16.695312 0.265625 14.46875 0.265625 C 12.207031 0.265625 10.117188 -0.285156 8.203125 -1.390625 C 6.296875 -2.492188 4.785156 -3.992188 3.671875 -5.890625 C 2.554688 -7.796875 2 -9.898438 2 -12.203125 Z M 5.375 -12.171875 C 5.375 -10.503906 5.78125 -8.957031 6.59375 -7.53125 C 7.40625 -6.113281 8.515625 -4.988281 9.921875 -4.15625 C 11.328125 -3.320312 12.863281 -2.90625 14.53125 -2.90625 C 16.195312 -2.90625 17.722656 -3.316406 19.109375 -4.140625 C 20.492188 -4.960938 21.585938 -6.085938 22.390625 -7.515625 C 23.191406 -8.953125 23.59375 -10.515625 23.59375 -12.203125 C 23.59375 -13.890625 23.1875 -15.453125 22.375 -16.890625 C 21.5625 -18.335938 20.457031 -19.476562 19.0625 -20.3125 C 17.664062 -21.144531 16.132812 -21.5625 14.46875 -21.5625 C 12.800781 -21.5625 11.265625 -21.140625 9.859375 -20.296875 C 8.460938 -19.453125 7.363281 -18.304688 6.5625 -16.859375 C 5.769531 -15.421875 5.375 -13.859375 5.375 -12.171875 Z M 5.375 -12.171875 "/></g></g></g><g fill="#edffcc" fill-opacity="1"><g transform="translate(591.960054, 171.650544)"><g><path d="M 24.8125 -24.4375 L 24.8125 0.8125 L 24.703125 0.8125 L 6.765625 -17.40625 L 6.828125 0 L 3.515625 0 L 3.515625 -25.171875 L 3.6875 -25.171875 L 21.59375 -6.765625 L 21.53125 -24.4375 Z M 24.8125 -24.4375 "/></g></g></g><g fill="#edffcc" fill-opacity="1"><g transform="translate(622.346992, 171.650544)"><g><path d="M 16.15625 -20.078125 C 15.28125 -20.546875 14.34375 -20.925781 13.34375 -21.21875 C 12.351562 -21.507812 11.421875 -21.65625 10.546875 -21.65625 C 9.210938 -21.65625 8.15625 -21.359375 7.375 -20.765625 C 6.601562 -20.171875 6.21875 -19.351562 6.21875 -18.3125 C 6.21875 -17.300781 6.671875 -16.472656 7.578125 -15.828125 C 8.492188 -15.191406 9.796875 -14.554688 11.484375 -13.921875 C 12.753906 -13.472656 13.820312 -12.984375 14.6875 -12.453125 C 15.550781 -11.921875 16.269531 -11.1875 16.84375 -10.25 C 17.414062 -9.320312 17.703125 -8.132812 17.703125 -6.6875 C 17.703125 -5.382812 17.375 -4.203125 16.71875 -3.140625 C 16.070312 -2.078125 15.144531 -1.242188 13.9375 -0.640625 C 12.738281 -0.0351562 11.328125 0.265625 9.703125 0.265625 C 8.191406 0.265625 6.738281 0.0234375 5.34375 -0.453125 C 3.945312 -0.941406 2.71875 -1.554688 1.65625 -2.296875 L 3.109375 -4.90625 C 3.941406 -4.269531 4.941406 -3.734375 6.109375 -3.296875 C 7.285156 -2.859375 8.378906 -2.640625 9.390625 -2.640625 C 10.703125 -2.640625 11.847656 -2.972656 12.828125 -3.640625 C 13.804688 -4.316406 14.296875 -5.320312 14.296875 -6.65625 C 14.296875 -7.78125 13.882812 -8.675781 13.0625 -9.34375 C 12.238281 -10.007812 11.082031 -10.632812 9.59375 -11.21875 C 8.21875 -11.738281 7.070312 -12.242188 6.15625 -12.734375 C 5.25 -13.234375 4.46875 -13.914062 3.8125 -14.78125 C 3.164062 -15.65625 2.84375 -16.742188 2.84375 -18.046875 C 2.84375 -19.960938 3.507812 -21.507812 4.84375 -22.6875 C 6.1875 -23.875 7.929688 -24.5 10.078125 -24.5625 C 12.710938 -24.5625 15.15625 -23.910156 17.40625 -22.609375 Z M 16.15625 -20.078125 "/></g></g></g><g clip-path="url(#49e5c60e40)"><path fill="#edffcc" d="M 148.566406 183.738281 L 642.972656 183.738281 L 642.972656 612 L 148.566406 612 Z M 148.566406 183.738281 " fill-opacity="1" fill-rule="nonzero"/></g><g clip-path="url(#4b3eca83d3)"><path fill="#81b622" d="M 189.625 237.679688 L 602.363281 237.679688 L 602.363281 288.625 L 189.625 288.625 Z M 189.625 237.679688 " fill-opacity="1" fill-rule="nonzero"/></g><g clip-path="url(#db0ab5a3dc)"><path fill="#59981a" d="M 0 342.5625 L 791.960938 342.5625 L 791.960938 374.976562 L 0 374.976562 Z M 0 342.5625 " fill-opacity="1" fill-rule="nonzero"/></g><g clip-path="url(#333f56adf1)"><path fill="#59981a" d="M 0 365.023438 L 148.566406 365.023438 L 148.566406 612.25 L 0 612.25 Z M 0 365.023438 " fill-opacity="1" fill-rule="nonzero"/></g><g clip-path="url(#460a48e29f)"><path fill="#59981a" d="M 643.433594 358.769531 L 792 358.769531 L 792 611.796875 L 643.433594 611.796875 Z M 643.433594 358.769531 " fill-opacity="1" fill-rule="nonzero"/></g><g fill="#000000" fill-opacity="1"><g transform="translate(200.025256, 272.592667)"><g><path d="M 17.859375 0.84375 L 13.4375 -10.46875 L 8.609375 0.890625 L 1.078125 -18.828125 L 4.03125 -18.828125 L 8.921875 -5.078125 L 12.1875 -13.65625 L 10.171875 -18.828125 L 12.6875 -18.828125 L 17.9375 -5.359375 L 22.59375 -18.828125 L 25.3125 -18.828125 Z M 17.859375 0.84375 "/></g></g></g><g fill="#000000" fill-opacity="1"><g transform="translate(226.388778, 272.592667)"><g><path d="M 1.171875 -5.515625 C 1.171875 -6.578125 1.425781 -7.546875 1.9375 -8.421875 C 2.457031 -9.304688 3.175781 -10 4.09375 -10.5 C 5.007812 -11.007812 6.039062 -11.265625 7.1875 -11.265625 C 8.34375 -11.265625 9.367188 -11.007812 10.265625 -10.5 C 11.160156 -10 11.859375 -9.3125 12.359375 -8.4375 C 12.859375 -7.570312 13.109375 -6.597656 13.109375 -5.515625 C 13.109375 -4.429688 12.859375 -3.445312 12.359375 -2.5625 C 11.859375 -1.6875 11.15625 -0.992188 10.25 -0.484375 C 9.34375 0.015625 8.304688 0.265625 7.140625 0.265625 C 6.003906 0.265625 4.984375 0.0234375 4.078125 -0.453125 C 3.171875 -0.929688 2.457031 -1.609375 1.9375 -2.484375 C 1.425781 -3.359375 1.171875 -4.367188 1.171875 -5.515625 Z M 3.640625 -5.5 C 3.640625 -4.8125 3.789062 -4.179688 4.09375 -3.609375 C 4.394531 -3.035156 4.8125 -2.582031 5.34375 -2.25 C 5.875 -1.914062 6.460938 -1.75 7.109375 -1.75 C 8.117188 -1.75 8.957031 -2.101562 9.625 -2.8125 C 10.289062 -3.53125 10.625 -4.425781 10.625 -5.5 C 10.625 -6.5625 10.289062 -7.453125 9.625 -8.171875 C 8.957031 -8.898438 8.117188 -9.265625 7.109375 -9.265625 C 6.453125 -9.265625 5.859375 -9.09375 5.328125 -8.75 C 4.804688 -8.40625 4.394531 -7.945312 4.09375 -7.375 C 3.789062 -6.800781 3.640625 -6.175781 3.640625 -5.5 Z M 3.640625 -5.5 "/></g></g></g><g fill="#000000" fill-opacity="1"><g transform="translate(240.642867, 272.592667)"><g><path d="M 4.46875 -8.265625 C 4.75 -8.859375 5.144531 -9.378906 5.65625 -9.828125 C 6.175781 -10.285156 6.722656 -10.632812 7.296875 -10.875 C 7.867188 -11.125 8.375 -11.253906 8.8125 -11.265625 L 8.703125 -8.84375 C 7.921875 -8.875 7.210938 -8.710938 6.578125 -8.359375 C 5.941406 -8.015625 5.441406 -7.53125 5.078125 -6.90625 C 4.722656 -6.289062 4.546875 -5.632812 4.546875 -4.9375 L 4.546875 0 L 2.125 0 L 2.125 -10.828125 L 4.296875 -10.828125 Z M 4.46875 -8.265625 "/></g></g><g transform="translate(250.47688, 272.592667)"><g><path d="M 5.96875 -5.203125 L 4.546875 -4.046875 L 4.546875 0 L 2.125 0 L 2.125 -20.265625 L 4.546875 -20.265625 L 4.546875 -6.59375 L 10.15625 -11.09375 L 11.640625 -9.78125 L 7.640625 -6.5625 L 12.15625 0 L 9.3125 0 Z M 5.96875 -5.203125 "/></g></g><g transform="translate(263.52787, 272.592667)"><g><path d="M 4.546875 -10.828125 L 4.546875 0 L 2.125 0 L 2.125 -10.828125 Z M 1.9375 -14.734375 C 1.9375 -15.117188 2.082031 -15.441406 2.375 -15.703125 C 2.675781 -15.960938 3.019531 -16.09375 3.40625 -16.09375 C 3.789062 -16.09375 4.125 -15.960938 4.40625 -15.703125 C 4.695312 -15.441406 4.84375 -15.117188 4.84375 -14.734375 C 4.84375 -14.347656 4.695312 -14.023438 4.40625 -13.765625 C 4.125 -13.503906 3.789062 -13.375 3.40625 -13.375 C 3.019531 -13.375 2.675781 -13.503906 2.375 -13.765625 C 2.082031 -14.023438 1.9375 -14.347656 1.9375 -14.734375 Z M 1.9375 -14.734375 "/></g></g><g transform="translate(270.197213, 272.592667)"><g><path d="M 8.84375 -11.25 C 9.851562 -11.25 10.6875 -10.945312 11.34375 -10.34375 C 12.007812 -9.738281 12.351562 -8.957031 12.375 -8 L 12.375 0 L 9.90625 0 L 9.90625 -7.171875 C 9.875 -7.773438 9.691406 -8.25 9.359375 -8.59375 C 9.023438 -8.945312 8.53125 -9.132812 7.875 -9.15625 C 6.914062 -9.15625 6.117188 -8.769531 5.484375 -8 C 4.859375 -7.238281 4.546875 -6.265625 4.546875 -5.078125 L 4.546875 0 L 2.125 0 L 2.125 -10.828125 L 4.3125 -10.828125 L 4.46875 -8.734375 C 4.851562 -9.515625 5.425781 -10.128906 6.1875 -10.578125 C 6.957031 -11.023438 7.84375 -11.25 8.84375 -11.25 Z M 8.84375 -11.25 "/></g></g><g transform="translate(284.660535, 272.592667)"><g><path d="M 13.546875 -10.828125 L 13.546875 0.078125 C 13.546875 1.066406 13.289062 1.960938 12.78125 2.765625 C 12.28125 3.566406 11.5625 4.203125 10.625 4.671875 C 9.695312 5.148438 8.601562 5.390625 7.34375 5.390625 C 6.25 5.390625 5.304688 5.207031 4.515625 4.84375 C 3.722656 4.476562 2.925781 3.9375 2.125 3.21875 L 3.5625 1.546875 C 4.15625 2.097656 4.742188 2.519531 5.328125 2.8125 C 5.921875 3.101562 6.578125 3.25 7.296875 3.25 C 8.503906 3.25 9.429688 2.957031 10.078125 2.375 C 10.734375 1.800781 11.070312 1.023438 11.09375 0.046875 L 11.109375 -1.984375 C 10.710938 -1.304688 10.125 -0.757812 9.34375 -0.34375 C 8.570312 0.0625 7.679688 0.265625 6.671875 0.265625 C 5.671875 0.265625 4.753906 0.015625 3.921875 -0.484375 C 3.085938 -0.992188 2.421875 -1.6875 1.921875 -2.5625 C 1.421875 -3.4375 1.171875 -4.40625 1.171875 -5.46875 C 1.171875 -6.5625 1.425781 -7.546875 1.9375 -8.421875 C 2.457031 -9.304688 3.148438 -10 4.015625 -10.5 C 4.890625 -11.007812 5.828125 -11.265625 6.828125 -11.265625 C 7.753906 -11.265625 8.609375 -11.082031 9.390625 -10.71875 C 10.171875 -10.351562 10.753906 -9.882812 11.140625 -9.3125 L 11.328125 -10.828125 Z M 7.375 -1.75 C 8.300781 -1.75 9.101562 -2 9.78125 -2.5 C 10.457031 -3.007812 10.898438 -3.675781 11.109375 -4.5 L 11.109375 -6.640625 C 10.867188 -7.429688 10.40625 -8.066406 9.71875 -8.546875 C 9.039062 -9.023438 8.257812 -9.265625 7.375 -9.265625 C 6.3125 -9.265625 5.421875 -8.914062 4.703125 -8.21875 C 3.992188 -7.519531 3.640625 -6.628906 3.640625 -5.546875 C 3.640625 -4.847656 3.800781 -4.207031 4.125 -3.625 C 4.457031 -3.050781 4.910156 -2.59375 5.484375 -2.25 C 6.066406 -1.914062 6.695312 -1.75 7.375 -1.75 Z M 7.375 -1.75 "/></g></g></g><g fill="#000000" fill-opacity="1"><g transform="translate(300.32695, 272.592667)"><g/></g></g><g fill="#000000" fill-opacity="1"><g transform="translate(308.591705, 272.592667)"><g><path d="M 17.703125 0 L 15.171875 0 L 15.171875 -8.296875 L 5.25 -8.296875 L 5.25 0 L 2.71875 0 L 2.71875 -18.90625 L 5.25 -18.90625 L 5.25 -10.71875 L 15.171875 -10.71875 L 15.171875 -18.90625 L 17.703125 -18.90625 Z M 17.703125 0 "/></g></g></g><g fill="#000000" fill-opacity="1"><g transform="translate(329.0182, 272.592667)"><g><path d="M 13.234375 -10.828125 L 13.234375 0 L 10.796875 0 L 10.796875 -1.78125 C 10.421875 -1.269531 9.863281 -0.800781 9.125 -0.375 C 8.394531 0.0507812 7.566406 0.265625 6.640625 0.265625 C 5.609375 0.265625 4.675781 0.0390625 3.84375 -0.40625 C 3.019531 -0.851562 2.367188 -1.503906 1.890625 -2.359375 C 1.410156 -3.210938 1.171875 -4.234375 1.171875 -5.421875 C 1.171875 -6.597656 1.421875 -7.625 1.921875 -8.5 C 2.421875 -9.382812 3.09375 -10.066406 3.9375 -10.546875 C 4.78125 -11.023438 5.71875 -11.265625 6.75 -11.265625 C 7.675781 -11.265625 8.476562 -11.0625 9.15625 -10.65625 C 9.832031 -10.257812 10.378906 -9.742188 10.796875 -9.109375 L 10.984375 -10.828125 Z M 7.296875 -1.75 C 8.179688 -1.75 8.941406 -2 9.578125 -2.5 C 10.222656 -3 10.628906 -3.675781 10.796875 -4.53125 L 10.796875 -6.671875 C 10.585938 -7.441406 10.148438 -8.066406 9.484375 -8.546875 C 8.828125 -9.023438 8.070312 -9.265625 7.21875 -9.265625 C 6.570312 -9.265625 5.972656 -9.101562 5.421875 -8.78125 C 4.878906 -8.46875 4.445312 -8.03125 4.125 -7.46875 C 3.800781 -6.90625 3.640625 -6.265625 3.640625 -5.546875 C 3.640625 -4.847656 3.800781 -4.207031 4.125 -3.625 C 4.457031 -3.050781 4.898438 -2.59375 5.453125 -2.25 C 6.015625 -1.914062 6.628906 -1.75 7.296875 -1.75 Z M 7.296875 -1.75 "/></g></g></g><g fill="#000000" fill-opacity="1"><g transform="translate(344.370758, 272.592667)"><g><path d="M 4.46875 -8.265625 C 4.75 -8.859375 5.144531 -9.378906 5.65625 -9.828125 C 6.175781 -10.285156 6.722656 -10.632812 7.296875 -10.875 C 7.867188 -11.125 8.375 -11.253906 8.8125 -11.265625 L 8.703125 -8.84375 C 7.921875 -8.875 7.210938 -8.710938 6.578125 -8.359375 C 5.941406 -8.015625 5.441406 -7.53125 5.078125 -6.90625 C 4.722656 -6.289062 4.546875 -5.632812 4.546875 -4.9375 L 4.546875 0 L 2.125 0 L 2.125 -10.828125 L 4.296875 -10.828125 Z M 4.46875 -8.265625 "/></g></g><g transform="translate(354.20477, 272.592667)"><g><path d="M 13.421875 -20.265625 L 13.421875 0 L 10.953125 0 L 10.953125 -1.703125 C 10.429688 -1.085938 9.789062 -0.601562 9.03125 -0.25 C 8.28125 0.09375 7.445312 0.265625 6.53125 0.265625 C 5.519531 0.265625 4.601562 0.0195312 3.78125 -0.46875 C 2.96875 -0.957031 2.328125 -1.640625 1.859375 -2.515625 C 1.398438 -3.398438 1.171875 -4.421875 1.171875 -5.578125 C 1.171875 -6.742188 1.414062 -7.753906 1.90625 -8.609375 C 2.394531 -9.472656 3.066406 -10.128906 3.921875 -10.578125 C 4.773438 -11.035156 5.742188 -11.265625 6.828125 -11.265625 C 7.648438 -11.265625 8.4375 -11.09375 9.1875 -10.75 C 9.945312 -10.414062 10.546875 -9.953125 10.984375 -9.359375 L 10.984375 -20.265625 Z M 7.296875 -1.828125 C 8.234375 -1.828125 9.03125 -2.078125 9.6875 -2.578125 C 10.34375 -3.085938 10.765625 -3.769531 10.953125 -4.625 L 10.953125 -6.671875 C 10.742188 -7.453125 10.300781 -8.09375 9.625 -8.59375 C 8.945312 -9.09375 8.171875 -9.34375 7.296875 -9.34375 C 6.628906 -9.34375 6.015625 -9.179688 5.453125 -8.859375 C 4.898438 -8.535156 4.457031 -8.085938 4.125 -7.515625 C 3.800781 -6.953125 3.640625 -6.3125 3.640625 -5.59375 C 3.640625 -4.894531 3.800781 -4.257812 4.125 -3.6875 C 4.457031 -3.113281 4.898438 -2.660156 5.453125 -2.328125 C 6.015625 -1.992188 6.628906 -1.828125 7.296875 -1.828125 Z M 7.296875 -1.828125 "/></g></g></g><g fill="#000000" fill-opacity="1"><g transform="translate(369.714253, 272.592667)"><g/></g></g><g fill="#000000" fill-opacity="1"><g transform="translate(377.979001, 272.592667)"><g><path d="M 3.015625 -8.65625 L 1.15625 -8.65625 L 1.15625 -10.859375 L 3.015625 -10.859375 L 3.015625 -15.40625 C 3.015625 -16.976562 3.367188 -18.179688 4.078125 -19.015625 C 4.796875 -19.847656 5.84375 -20.265625 7.21875 -20.265625 C 7.601562 -20.265625 8.015625 -20.207031 8.453125 -20.09375 C 8.890625 -19.988281 9.269531 -19.828125 9.59375 -19.609375 L 8.546875 -17.84375 C 8.285156 -18.113281 7.921875 -18.25 7.453125 -18.25 C 6.785156 -18.25 6.28125 -18.019531 5.9375 -17.5625 C 5.601562 -17.113281 5.4375 -16.382812 5.4375 -15.375 L 5.4375 -10.859375 L 8.890625 -10.859375 L 8.890625 -8.65625 L 5.4375 -8.65625 L 5.4375 0 L 3.015625 0 Z M 3.015625 -8.65625 "/></g></g></g><g fill="#000000" fill-opacity="1"><g transform="translate(387.91763, 272.592667)"><g><path d="M 1.171875 -5.515625 C 1.171875 -6.578125 1.425781 -7.546875 1.9375 -8.421875 C 2.457031 -9.304688 3.175781 -10 4.09375 -10.5 C 5.007812 -11.007812 6.039062 -11.265625 7.1875 -11.265625 C 8.34375 -11.265625 9.367188 -11.007812 10.265625 -10.5 C 11.160156 -10 11.859375 -9.3125 12.359375 -8.4375 C 12.859375 -7.570312 13.109375 -6.597656 13.109375 -5.515625 C 13.109375 -4.429688 12.859375 -3.445312 12.359375 -2.5625 C 11.859375 -1.6875 11.15625 -0.992188 10.25 -0.484375 C 9.34375 0.015625 8.304688 0.265625 7.140625 0.265625 C 6.003906 0.265625 4.984375 0.0234375 4.078125 -0.453125 C 3.171875 -0.929688 2.457031 -1.609375 1.9375 -2.484375 C 1.425781 -3.359375 1.171875 -4.367188 1.171875 -5.515625 Z M 3.640625 -5.5 C 3.640625 -4.8125 3.789062 -4.179688 4.09375 -3.609375 C 4.394531 -3.035156 4.8125 -2.582031 5.34375 -2.25 C 5.875 -1.914062 6.460938 -1.75 7.109375 -1.75 C 8.117188 -1.75 8.957031 -2.101562 9.625 -2.8125 C 10.289062 -3.53125 10.625 -4.425781 10.625 -5.5 C 10.625 -6.5625 10.289062 -7.453125 9.625 -8.171875 C 8.957031 -8.898438 8.117188 -9.265625 7.109375 -9.265625 C 6.453125 -9.265625 5.859375 -9.09375 5.328125 -8.75 C 4.804688 -8.40625 4.394531 -7.945312 4.09375 -7.375 C 3.789062 -6.800781 3.640625 -6.175781 3.640625 -5.5 Z M 3.640625 -5.5 "/></g></g></g><g fill="#000000" fill-opacity="1"><g transform="translate(402.171712, 272.592667)"><g><path d="M 4.46875 -8.265625 C 4.75 -8.859375 5.144531 -9.378906 5.65625 -9.828125 C 6.175781 -10.285156 6.722656 -10.632812 7.296875 -10.875 C 7.867188 -11.125 8.375 -11.253906 8.8125 -11.265625 L 8.703125 -8.84375 C 7.921875 -8.875 7.210938 -8.710938 6.578125 -8.359375 C 5.941406 -8.015625 5.441406 -7.53125 5.078125 -6.90625 C 4.722656 -6.289062 4.546875 -5.632812 4.546875 -4.9375 L 4.546875 0 L 2.125 0 L 2.125 -10.828125 L 4.296875 -10.828125 Z M 4.46875 -8.265625 "/></g></g><g transform="translate(412.005724, 272.592667)"><g/></g></g><g fill="#000000" fill-opacity="1"><g transform="translate(420.270486, 272.592667)"><g><path d="M 5.625 -15.59375 L 5.625 -10.796875 L 8.578125 -10.796875 L 8.578125 -8.859375 L 5.625 -8.859375 L 5.625 0 L 3.171875 0 L 3.171875 -8.859375 L 1.171875 -8.859375 L 1.171875 -10.796875 L 3.171875 -10.796875 L 3.171875 -15.59375 Z M 5.625 -15.59375 "/></g></g></g><g fill="#000000" fill-opacity="1"><g transform="translate(429.686032, 272.592667)"><g><path d="M 8.84375 -11.25 C 9.851562 -11.25 10.6875 -10.945312 11.34375 -10.34375 C 12.007812 -9.738281 12.351562 -8.957031 12.375 -8 L 12.375 0 L 9.90625 0 L 9.90625 -7.171875 C 9.875 -7.773438 9.691406 -8.25 9.359375 -8.59375 C 9.023438 -8.945312 8.53125 -9.132812 7.875 -9.15625 C 7.25 -9.15625 6.679688 -8.976562 6.171875 -8.625 C 5.671875 -8.28125 5.273438 -7.789062 4.984375 -7.15625 C 4.691406 -6.53125 4.546875 -5.835938 4.546875 -5.078125 L 4.546875 0 L 2.125 0 L 2.125 -20.265625 L 4.5 -20.265625 L 4.5 -8.859375 C 4.894531 -9.578125 5.472656 -10.15625 6.234375 -10.59375 C 6.992188 -11.03125 7.863281 -11.25 8.84375 -11.25 Z M 8.84375 -11.25 "/></g></g></g><g fill="#000000" fill-opacity="1"><g transform="translate(444.149347, 272.592667)"><g><path d="M 7.1875 -1.828125 C 8.09375 -1.828125 8.972656 -2.140625 9.828125 -2.765625 L 10.953125 -0.96875 C 10.378906 -0.582031 9.753906 -0.28125 9.078125 -0.0625 C 8.410156 0.15625 7.765625 0.265625 7.140625 0.265625 C 5.929688 0.265625 4.878906 0.015625 3.984375 -0.484375 C 3.085938 -0.984375 2.394531 -1.664062 1.90625 -2.53125 C 1.414062 -3.40625 1.171875 -4.394531 1.171875 -5.5 C 1.171875 -6.5625 1.4375 -7.53125 1.96875 -8.40625 C 2.5 -9.289062 3.226562 -9.988281 4.15625 -10.5 C 5.082031 -11.007812 6.09375 -11.265625 7.1875 -11.265625 C 8.601562 -11.265625 9.785156 -10.847656 10.734375 -10.015625 C 11.679688 -9.191406 12.332031 -8.039062 12.6875 -6.5625 L 4.109375 -3.5625 C 4.421875 -3.019531 4.84375 -2.59375 5.375 -2.28125 C 5.90625 -1.976562 6.507812 -1.828125 7.1875 -1.828125 Z M 7.015625 -9.34375 C 6.015625 -9.34375 5.191406 -8.992188 4.546875 -8.296875 C 3.898438 -7.597656 3.578125 -6.707031 3.578125 -5.625 C 3.578125 -5.363281 3.585938 -5.160156 3.609375 -5.015625 L 9.90625 -7.34375 C 9.644531 -7.9375 9.273438 -8.414062 8.796875 -8.78125 C 8.316406 -9.15625 7.722656 -9.34375 7.015625 -9.34375 Z M 7.015625 -9.34375 "/></g></g></g><g fill="#000000" fill-opacity="1"><g transform="translate(457.749575, 272.592667)"><g/></g></g><g fill="#000000" fill-opacity="1"><g transform="translate(466.014323, 272.592667)"><g><path d="M 11.140625 -9.8125 C 12.222656 -9.394531 13.078125 -8.796875 13.703125 -8.015625 C 14.328125 -7.242188 14.640625 -6.34375 14.640625 -5.3125 C 14.640625 -4.101562 14.347656 -3.101562 13.765625 -2.3125 C 13.179688 -1.519531 12.414062 -0.9375 11.46875 -0.5625 C 10.519531 -0.1875 9.476562 0 8.34375 0 L 2.71875 0 L 2.71875 -18.90625 L 7.609375 -18.90625 C 9.546875 -18.90625 11.046875 -18.507812 12.109375 -17.71875 C 13.171875 -16.925781 13.703125 -15.738281 13.703125 -14.15625 C 13.703125 -13.15625 13.476562 -12.285156 13.03125 -11.546875 C 12.59375 -10.804688 11.960938 -10.226562 11.140625 -9.8125 Z M 5.25 -10.640625 L 8.140625 -10.640625 C 9.109375 -10.640625 9.84375 -10.914062 10.34375 -11.46875 C 10.84375 -12.03125 11.09375 -12.75 11.09375 -13.625 C 11.09375 -14.582031 10.796875 -15.296875 10.203125 -15.765625 C 9.609375 -16.242188 8.78125 -16.484375 7.71875 -16.484375 L 5.25 -16.484375 Z M 8.234375 -2.359375 C 9.335938 -2.359375 10.242188 -2.601562 10.953125 -3.09375 C 11.671875 -3.59375 12.03125 -4.320312 12.03125 -5.28125 C 12.03125 -6.28125 11.640625 -7.015625 10.859375 -7.484375 C 10.085938 -7.953125 9.15625 -8.1875 8.0625 -8.1875 L 5.25 -8.1875 L 5.25 -2.359375 Z M 8.234375 -2.359375 "/></g></g><g transform="translate(482.203828, 272.592667)"><g><path d="M 7.1875 -1.828125 C 8.09375 -1.828125 8.972656 -2.140625 9.828125 -2.765625 L 10.953125 -0.96875 C 10.378906 -0.582031 9.753906 -0.28125 9.078125 -0.0625 C 8.410156 0.15625 7.765625 0.265625 7.140625 0.265625 C 5.929688 0.265625 4.878906 0.015625 3.984375 -0.484375 C 3.085938 -0.984375 2.394531 -1.664062 1.90625 -2.53125 C 1.414062 -3.40625 1.171875 -4.394531 1.171875 -5.5 C 1.171875 -6.5625 1.4375 -7.53125 1.96875 -8.40625 C 2.5 -9.289062 3.226562 -9.988281 4.15625 -10.5 C 5.082031 -11.007812 6.09375 -11.265625 7.1875 -11.265625 C 8.601562 -11.265625 9.785156 -10.847656 10.734375 -10.015625 C 11.679688 -9.191406 12.332031 -8.039062 12.6875 -6.5625 L 4.109375 -3.5625 C 4.421875 -3.019531 4.84375 -2.59375 5.375 -2.28125 C 5.90625 -1.976562 6.507812 -1.828125 7.1875 -1.828125 Z M 7.015625 -9.34375 C 6.015625 -9.34375 5.191406 -8.992188 4.546875 -8.296875 C 3.898438 -7.597656 3.578125 -6.707031 3.578125 -5.625 C 3.578125 -5.363281 3.585938 -5.160156 3.609375 -5.015625 L 9.90625 -7.34375 C 9.644531 -7.9375 9.273438 -8.414062 8.796875 -8.78125 C 8.316406 -9.15625 7.722656 -9.34375 7.015625 -9.34375 Z M 7.015625 -9.34375 "/></g></g></g><g fill="#000000" fill-opacity="1"><g transform="translate(495.804056, 272.592667)"><g><path d="M 5.171875 0.234375 C 4.367188 0.234375 3.609375 0.09375 2.890625 -0.1875 C 2.171875 -0.46875 1.582031 -0.875 1.125 -1.40625 L 2.171875 -2.828125 C 2.609375 -2.410156 3.066406 -2.085938 3.546875 -1.859375 C 4.023438 -1.628906 4.5 -1.515625 4.96875 -1.515625 C 5.539062 -1.515625 6.007812 -1.628906 6.375 -1.859375 C 6.75 -2.085938 6.9375 -2.4375 6.9375 -2.90625 C 6.9375 -3.269531 6.820312 -3.5625 6.59375 -3.78125 C 6.363281 -4.007812 6.101562 -4.175781 5.8125 -4.28125 C 5.53125 -4.394531 5.050781 -4.554688 4.375 -4.765625 C 2.519531 -5.359375 1.59375 -6.410156 1.59375 -7.921875 C 1.59375 -8.828125 1.925781 -9.601562 2.59375 -10.25 C 3.269531 -10.894531 4.210938 -11.21875 5.421875 -11.21875 C 6.179688 -11.21875 6.859375 -11.117188 7.453125 -10.921875 C 8.046875 -10.734375 8.597656 -10.429688 9.109375 -10.015625 L 8.140625 -8.53125 C 7.859375 -8.820312 7.503906 -9.054688 7.078125 -9.234375 C 6.648438 -9.410156 6.242188 -9.503906 5.859375 -9.515625 C 5.367188 -9.515625 4.945312 -9.394531 4.59375 -9.15625 C 4.25 -8.925781 4.078125 -8.613281 4.078125 -8.21875 C 4.078125 -7.882812 4.191406 -7.609375 4.421875 -7.390625 C 4.648438 -7.171875 4.882812 -7.015625 5.125 -6.921875 C 5.375 -6.828125 5.851562 -6.664062 6.5625 -6.4375 C 7.457031 -6.132812 8.148438 -5.75 8.640625 -5.28125 C 9.140625 -4.8125 9.390625 -4.175781 9.390625 -3.375 C 9.390625 -2.332031 9.019531 -1.46875 8.28125 -0.78125 C 7.550781 -0.101562 6.515625 0.234375 5.171875 0.234375 Z M 5.171875 0.234375 "/></g></g></g><g fill="#000000" fill-opacity="1"><g transform="translate(506.474988, 272.592667)"><g><path d="M 5.625 -15.59375 L 5.625 -10.796875 L 8.578125 -10.796875 L 8.578125 -8.859375 L 5.625 -8.859375 L 5.625 0 L 3.171875 0 L 3.171875 -8.859375 L 1.171875 -8.859375 L 1.171875 -10.796875 L 3.171875 -10.796875 L 3.171875 -15.59375 Z M 5.625 -15.59375 "/></g></g></g><g fill="#000000" fill-opacity="1"><g transform="translate(515.890548, 272.592667)"><g/></g></g><g fill="#000000" fill-opacity="1"><g transform="translate(524.155295, 272.592667)"><g><path d="M 21.53125 -19.515625 L 21.53125 0 L 19.015625 0 L 19.015625 -12.234375 L 12.0625 -2.375 L 12 -2.375 L 5.171875 -11.90625 L 5.171875 0 L 2.71875 0 L 2.71875 -19.515625 L 2.75 -19.515625 L 12.0625 -6.328125 L 21.5 -19.515625 Z M 21.53125 -19.515625 "/></g></g></g><g fill="#000000" fill-opacity="1"><g transform="translate(548.400315, 272.592667)"><g><path d="M 12.1875 -10.828125 L 12.1875 0 L 9.984375 0 L 9.828125 -2.0625 C 9.460938 -1.332031 8.894531 -0.734375 8.125 -0.265625 C 7.363281 0.191406 6.515625 0.421875 5.578125 0.421875 C 4.578125 0.421875 3.757812 0.117188 3.125 -0.484375 C 2.488281 -1.085938 2.15625 -1.867188 2.125 -2.828125 L 2.125 -10.828125 L 4.546875 -10.828125 L 4.546875 -3.6875 C 4.585938 -3.070312 4.769531 -2.585938 5.09375 -2.234375 C 5.414062 -1.878906 5.894531 -1.691406 6.53125 -1.671875 C 7.125 -1.671875 7.664062 -1.847656 8.15625 -2.203125 C 8.644531 -2.566406 9.03125 -3.0625 9.3125 -3.6875 C 9.601562 -4.3125 9.75 -5.007812 9.75 -5.78125 L 9.75 -10.828125 Z M 12.1875 -10.828125 "/></g></g></g><g fill="#000000" fill-opacity="1"><g transform="translate(562.706719, 272.592667)"><g><path d="M 5.171875 0.234375 C 4.367188 0.234375 3.609375 0.09375 2.890625 -0.1875 C 2.171875 -0.46875 1.582031 -0.875 1.125 -1.40625 L 2.171875 -2.828125 C 2.609375 -2.410156 3.066406 -2.085938 3.546875 -1.859375 C 4.023438 -1.628906 4.5 -1.515625 4.96875 -1.515625 C 5.539062 -1.515625 6.007812 -1.628906 6.375 -1.859375 C 6.75 -2.085938 6.9375 -2.4375 6.9375 -2.90625 C 6.9375 -3.269531 6.820312 -3.5625 6.59375 -3.78125 C 6.363281 -4.007812 6.101562 -4.175781 5.8125 -4.28125 C 5.53125 -4.394531 5.050781 -4.554688 4.375 -4.765625 C 2.519531 -5.359375 1.59375 -6.410156 1.59375 -7.921875 C 1.59375 -8.828125 1.925781 -9.601562 2.59375 -10.25 C 3.269531 -10.894531 4.210938 -11.21875 5.421875 -11.21875 C 6.179688 -11.21875 6.859375 -11.117188 7.453125 -10.921875 C 8.046875 -10.734375 8.597656 -10.429688 9.109375 -10.015625 L 8.140625 -8.53125 C 7.859375 -8.820312 7.503906 -9.054688 7.078125 -9.234375 C 6.648438 -9.410156 6.242188 -9.503906 5.859375 -9.515625 C 5.367188 -9.515625 4.945312 -9.394531 4.59375 -9.15625 C 4.25 -8.925781 4.078125 -8.613281 4.078125 -8.21875 C 4.078125 -7.882812 4.191406 -7.609375 4.421875 -7.390625 C 4.648438 -7.171875 4.882812 -7.015625 5.125 -6.921875 C 5.375 -6.828125 5.851562 -6.664062 6.5625 -6.4375 C 7.457031 -6.132812 8.148438 -5.75 8.640625 -5.28125 C 9.140625 -4.8125 9.390625 -4.175781 9.390625 -3.375 C 9.390625 -2.332031 9.019531 -1.46875 8.28125 -0.78125 C 7.550781 -0.101562 6.515625 0.234375 5.171875 0.234375 Z M 5.171875 0.234375 "/></g></g></g><g fill="#000000" fill-opacity="1"><g transform="translate(573.377679, 272.592667)"><g><path d="M 4.546875 -10.828125 L 4.546875 0 L 2.125 0 L 2.125 -10.828125 Z M 1.9375 -14.734375 C 1.9375 -15.117188 2.082031 -15.441406 2.375 -15.703125 C 2.675781 -15.960938 3.019531 -16.09375 3.40625 -16.09375 C 3.789062 -16.09375 4.125 -15.960938 4.40625 -15.703125 C 4.695312 -15.441406 4.84375 -15.117188 4.84375 -14.734375 C 4.84375 -14.347656 4.695312 -14.023438 4.40625 -13.765625 C 4.125 -13.503906 3.789062 -13.375 3.40625 -13.375 C 3.019531 -13.375 2.675781 -13.503906 2.375 -13.765625 C 2.082031 -14.023438 1.9375 -14.347656 1.9375 -14.734375 Z M 1.9375 -14.734375 "/></g></g></g><g fill="#000000" fill-opacity="1"><g transform="translate(580.047037, 272.592667)"><g><path d="M 10.90625 -1.015625 C 10.414062 -0.617188 9.832031 -0.304688 9.15625 -0.078125 C 8.488281 0.148438 7.804688 0.265625 7.109375 0.265625 C 5.941406 0.265625 4.910156 0.03125 4.015625 -0.4375 C 3.117188 -0.914062 2.421875 -1.582031 1.921875 -2.4375 C 1.421875 -3.300781 1.171875 -4.300781 1.171875 -5.4375 C 1.171875 -6.550781 1.429688 -7.539062 1.953125 -8.40625 C 2.484375 -9.269531 3.179688 -9.9375 4.046875 -10.40625 C 4.921875 -10.875 5.863281 -11.109375 6.875 -11.109375 C 8.53125 -11.109375 9.898438 -10.65625 10.984375 -9.75 L 9.75 -8.15625 C 9.40625 -8.414062 9.003906 -8.640625 8.546875 -8.828125 C 8.097656 -9.015625 7.613281 -9.109375 7.09375 -9.109375 C 6.445312 -9.109375 5.859375 -8.945312 5.328125 -8.625 C 4.796875 -8.300781 4.375 -7.859375 4.0625 -7.296875 C 3.757812 -6.734375 3.609375 -6.113281 3.609375 -5.4375 C 3.609375 -4.757812 3.769531 -4.140625 4.09375 -3.578125 C 4.414062 -3.023438 4.851562 -2.582031 5.40625 -2.25 C 5.96875 -1.914062 6.609375 -1.75 7.328125 -1.75 C 8.210938 -1.75 8.988281 -2.007812 9.65625 -2.53125 Z M 10.90625 -1.015625 "/></g></g></g></svg>